ISO-10303-21;
HEADER;
/* Generated by software containing ST-Developer
 * from STEP Tools, Inc. (www.steptools.com) 
 */
/* OPTION: using custom renumber hook */

FILE_DESCRIPTION(
/* description */ ('STEP AP242 Edition 2',
'CAx-IF Rec.Pracs.---Representation and Presentation of Product Manufa
cturing Information (PMI)---4.0---2014-10-13',
'CAx-IF Rec.Pracs.---3D Tessellated Geometry---0.4---2014-09-14','2;1',
'CAx-IF Rec.Pracs.---User Defined Attributes---1.5---2016-08-15'),
/* implementation_level */ '2;1');

FILE_NAME(
/* name */ 'Part Studio 1 - Part 2',
/* time_stamp */ '2026-09-29T01:24:26Z',
/* author */ (''),
/* organization */ (''),
/* preprocessor_version */ 'ST-DEVELOPER v20',
/* originating_system */ 'ONSHAPE BY PTC INC, 1.221',
/* authorisation */ '  ');

FILE_SCHEMA (('AP242_MANAGED_MODEL_BASED_3D_ENGINEERING_MIM_LF { 1 0 10303 442 3 1 4 }'));
ENDSEC;

DATA;
#10=SHAPE_REPRESENTATION_RELATIONSHIP('','',#185,#11);
#11=ADVANCED_BREP_SHAPE_REPRESENTATION('',(#183),#293);
#12=CIRCLE('',#195,0.4);
#13=CIRCLE('',#196,0.4);
#14=CYLINDRICAL_SURFACE('',#194,0.4);
#15=ORIENTED_EDGE('',*,*,#59,.T.);
#16=ORIENTED_EDGE('',*,*,#60,.T.);
#17=ORIENTED_EDGE('',*,*,#61,.F.);
#18=ORIENTED_EDGE('',*,*,#62,.T.);
#19=ORIENTED_EDGE('',*,*,#63,.F.);
#20=ORIENTED_EDGE('',*,*,#62,.F.);
#21=ORIENTED_EDGE('',*,*,#64,.T.);
#22=ORIENTED_EDGE('',*,*,#65,.T.);
#23=ORIENTED_EDGE('',*,*,#66,.T.);
#24=ORIENTED_EDGE('',*,*,#65,.F.);
#25=ORIENTED_EDGE('',*,*,#67,.F.);
#26=ORIENTED_EDGE('',*,*,#68,.T.);
#27=ORIENTED_EDGE('',*,*,#69,.F.);
#28=ORIENTED_EDGE('',*,*,#68,.F.);
#29=ORIENTED_EDGE('',*,*,#70,.T.);
#30=ORIENTED_EDGE('',*,*,#71,.T.);
#31=ORIENTED_EDGE('',*,*,#72,.F.);
#32=ORIENTED_EDGE('',*,*,#71,.F.);
#33=ORIENTED_EDGE('',*,*,#73,.T.);
#34=ORIENTED_EDGE('',*,*,#74,.T.);
#35=ORIENTED_EDGE('',*,*,#61,.T.);
#36=ORIENTED_EDGE('',*,*,#75,.T.);
#37=ORIENTED_EDGE('',*,*,#73,.F.);
#38=ORIENTED_EDGE('',*,*,#70,.F.);
#39=ORIENTED_EDGE('',*,*,#67,.T.);
#40=ORIENTED_EDGE('',*,*,#64,.F.);
#41=ORIENTED_EDGE('',*,*,#76,.F.);
#42=ORIENTED_EDGE('',*,*,#77,.F.);
#43=ORIENTED_EDGE('',*,*,#78,.T.);
#44=ORIENTED_EDGE('',*,*,#59,.F.);
#45=ORIENTED_EDGE('',*,*,#63,.T.);
#46=ORIENTED_EDGE('',*,*,#66,.F.);
#47=ORIENTED_EDGE('',*,*,#69,.T.);
#48=ORIENTED_EDGE('',*,*,#72,.T.);
#49=ORIENTED_EDGE('',*,*,#79,.F.);
#50=ORIENTED_EDGE('',*,*,#75,.F.);
#51=ORIENTED_EDGE('',*,*,#80,.T.);
#52=ORIENTED_EDGE('',*,*,#77,.T.);
#53=ORIENTED_EDGE('',*,*,#78,.F.);
#54=ORIENTED_EDGE('',*,*,#80,.F.);
#55=ORIENTED_EDGE('',*,*,#60,.F.);
#56=ORIENTED_EDGE('',*,*,#76,.T.);
#57=ORIENTED_EDGE('',*,*,#74,.F.);
#58=ORIENTED_EDGE('',*,*,#79,.T.);
#59=EDGE_CURVE('',#81,#82,#95,.T.);
#60=EDGE_CURVE('',#82,#83,#96,.T.);
#61=EDGE_CURVE('',#84,#83,#97,.T.);
#62=EDGE_CURVE('',#84,#81,#98,.T.);
#63=EDGE_CURVE('',#81,#85,#99,.T.);
#64=EDGE_CURVE('',#84,#86,#100,.T.);
#65=EDGE_CURVE('',#86,#85,#101,.T.);
#66=EDGE_CURVE('',#87,#85,#102,.T.);
#67=EDGE_CURVE('',#88,#86,#103,.T.);
#68=EDGE_CURVE('',#88,#87,#104,.T.);
#69=EDGE_CURVE('',#87,#89,#105,.T.);
#70=EDGE_CURVE('',#88,#90,#106,.T.);
#71=EDGE_CURVE('',#90,#89,#107,.T.);
#72=EDGE_CURVE('',#89,#91,#108,.T.);
#73=EDGE_CURVE('',#90,#92,#109,.T.);
#74=EDGE_CURVE('',#92,#91,#110,.T.);
#75=EDGE_CURVE('',#83,#92,#111,.T.);
#76=EDGE_CURVE('',#93,#91,#112,.T.);
#77=EDGE_CURVE('',#94,#93,#113,.T.);
#78=EDGE_CURVE('',#94,#82,#114,.T.);
#79=EDGE_CURVE('',#92,#93,#12,.T.);
#80=EDGE_CURVE('',#83,#94,#13,.T.);
#81=VERTEX_POINT('',#248);
#82=VERTEX_POINT('',#249);
#83=VERTEX_POINT('',#251);
#84=VERTEX_POINT('',#253);
#85=VERTEX_POINT('',#257);
#86=VERTEX_POINT('',#259);
#87=VERTEX_POINT('',#263);
#88=VERTEX_POINT('',#265);
#89=VERTEX_POINT('',#269);
#90=VERTEX_POINT('',#271);
#91=VERTEX_POINT('',#275);
#92=VERTEX_POINT('',#277);
#93=VERTEX_POINT('',#283);
#94=VERTEX_POINT('',#285);
#95=LINE('',#247,#115);
#96=LINE('',#250,#116);
#97=LINE('',#252,#117);
#98=LINE('',#254,#118);
#99=LINE('',#256,#119);
#100=LINE('',#258,#120);
#101=LINE('',#260,#121);
#102=LINE('',#262,#122);
#103=LINE('',#264,#123);
#104=LINE('',#266,#124);
#105=LINE('',#268,#125);
#106=LINE('',#270,#126);
#107=LINE('',#272,#127);
#108=LINE('',#274,#128);
#109=LINE('',#276,#129);
#110=LINE('',#278,#130);
#111=LINE('',#280,#131);
#112=LINE('',#282,#132);
#113=LINE('',#284,#133);
#114=LINE('',#286,#134);
#115=VECTOR('',#203,1.);
#116=VECTOR('',#204,1.);
#117=VECTOR('',#205,1.);
#118=VECTOR('',#206,1.);
#119=VECTOR('',#209,1.);
#120=VECTOR('',#210,1.);
#121=VECTOR('',#211,1.);
#122=VECTOR('',#214,1.);
#123=VECTOR('',#215,1.);
#124=VECTOR('',#216,1.);
#125=VECTOR('',#219,1.);
#126=VECTOR('',#220,1.);
#127=VECTOR('',#221,1.);
#128=VECTOR('',#224,1.);
#129=VECTOR('',#225,1.);
#130=VECTOR('',#226,1.);
#131=VECTOR('',#229,1.);
#132=VECTOR('',#232,1.);
#133=VECTOR('',#233,1.);
#134=VECTOR('',#234,1.);
#135=EDGE_LOOP('',(#15,#16,#17,#18));
#136=EDGE_LOOP('',(#19,#20,#21,#22));
#137=EDGE_LOOP('',(#23,#24,#25,#26));
#138=EDGE_LOOP('',(#27,#28,#29,#30));
#139=EDGE_LOOP('',(#31,#32,#33,#34));
#140=EDGE_LOOP('',(#35,#36,#37,#38,#39,#40));
#141=EDGE_LOOP('',(#41,#42,#43,#44,#45,#46,#47,#48));
#142=EDGE_LOOP('',(#49,#50,#51,#52));
#143=EDGE_LOOP('',(#53,#54,#55));
#144=EDGE_LOOP('',(#56,#57,#58));
#145=FACE_BOUND('',#135,.T.);
#146=FACE_BOUND('',#136,.T.);
#147=FACE_BOUND('',#137,.T.);
#148=FACE_BOUND('',#138,.T.);
#149=FACE_BOUND('',#139,.T.);
#150=FACE_BOUND('',#140,.T.);
#151=FACE_BOUND('',#141,.T.);
#152=FACE_BOUND('',#142,.T.);
#153=FACE_BOUND('',#143,.T.);
#154=FACE_BOUND('',#144,.T.);
#155=PLANE('',#187);
#156=PLANE('',#188);
#157=PLANE('',#189);
#158=PLANE('',#190);
#159=PLANE('',#191);
#160=PLANE('',#192);
#161=PLANE('',#193);
#162=PLANE('',#197);
#163=PLANE('',#198);
#164=ADVANCED_FACE('',(#145),#155,.F.);
#165=ADVANCED_FACE('',(#146),#156,.T.);
#166=ADVANCED_FACE('',(#147),#157,.F.);
#167=ADVANCED_FACE('',(#148),#158,.T.);
#168=ADVANCED_FACE('',(#149),#159,.T.);
#169=ADVANCED_FACE('',(#150),#160,.F.);
#170=ADVANCED_FACE('',(#151),#161,.T.);
#171=ADVANCED_FACE('',(#152),#14,.F.);
#172=ADVANCED_FACE('',(#153),#162,.F.);
#173=ADVANCED_FACE('',(#154),#163,.T.);
#174=CLOSED_SHELL('',(#164,#165,#166,#167,#168,#169,#170,#171,#172,#173));
#175=STYLED_ITEM('',(#176),#183);
#176=PRESENTATION_STYLE_ASSIGNMENT((#177));
#177=SURFACE_STYLE_USAGE(.BOTH.,#178);
#178=SURFACE_SIDE_STYLE('',(#179));
#179=SURFACE_STYLE_FILL_AREA(#180);
#180=FILL_AREA_STYLE('',(#181));
#181=FILL_AREA_STYLE_COLOUR('',#182);
#182=COLOUR_RGB('',0.647058823529412,0.647058823529412,0.647058823529412);
#183=MANIFOLD_SOLID_BREP('Part 2',#174);
#184=SHAPE_DEFINITION_REPRESENTATION(#298,#185);
#185=SHAPE_REPRESENTATION('Part 2',(#186),#293);
#186=AXIS2_PLACEMENT_3D('',#245,#199,#200);
#187=AXIS2_PLACEMENT_3D('',#246,#201,#202);
#188=AXIS2_PLACEMENT_3D('',#255,#207,#208);
#189=AXIS2_PLACEMENT_3D('',#261,#212,#213);
#190=AXIS2_PLACEMENT_3D('',#267,#217,#218);
#191=AXIS2_PLACEMENT_3D('',#273,#222,#223);
#192=AXIS2_PLACEMENT_3D('',#279,#227,#228);
#193=AXIS2_PLACEMENT_3D('',#281,#230,#231);
#194=AXIS2_PLACEMENT_3D('',#287,#235,#236);
#195=AXIS2_PLACEMENT_3D('',#288,#237,#238);
#196=AXIS2_PLACEMENT_3D('',#289,#239,#240);
#197=AXIS2_PLACEMENT_3D('',#290,#241,#242);
#198=AXIS2_PLACEMENT_3D('',#291,#243,#244);
#199=DIRECTION('',(0.,0.,1.));
#200=DIRECTION('',(1.,0.,0.));
#201=DIRECTION('',(4.33680868994202E-17,0.,-1.));
#202=DIRECTION('',(-1.,0.,-4.33680868994202E-17));
#203=DIRECTION('',(0.,1.,0.));
#204=DIRECTION('',(-1.,0.,-1.33692225808393E-16));
#205=DIRECTION('',(0.,1.,0.));
#206=DIRECTION('',(1.,0.,4.33680868994202E-17));
#207=DIRECTION('',(2.60208521396522E-17,-0.8,-0.6));
#208=DIRECTION('',(0.,0.6,-0.8));
#209=DIRECTION('',(3.46944695195361E-17,0.6,-0.8));
#210=DIRECTION('',(3.46944695195361E-17,0.6,-0.8));
#211=DIRECTION('',(1.,0.,4.33680868994202E-17));
#212=DIRECTION('',(-4.33680868994202E-17,0.,1.));
#213=DIRECTION('',(1.,0.,4.33680868994202E-17));
#214=DIRECTION('',(0.,-1.,0.));
#215=DIRECTION('',(0.,-1.,0.));
#216=DIRECTION('',(1.,0.,4.33680868994202E-17));
#217=DIRECTION('',(1.00537959466866E-17,0.972757567344016,-0.231824750997282));
#218=DIRECTION('',(0.,0.231824750997282,0.972757567344016));
#219=DIRECTION('',(-4.21866347126439E-17,0.231824750997282,0.972757567344016));
#220=DIRECTION('',(-4.21866347126439E-17,0.231824750997282,0.972757567344016));
#221=DIRECTION('',(1.,0.,4.33680868994202E-17));
#222=DIRECTION('',(-1.00537959466866E-17,0.972757567344016,0.231824750997282));
#223=DIRECTION('',(0.,-0.231824750997282,0.972757567344016));
#224=DIRECTION('',(-4.21866347126439E-17,-0.231824750997282,0.972757567344016));
#225=DIRECTION('',(-4.21866347126439E-17,-0.231824750997282,0.972757567344016));
#226=DIRECTION('',(1.,0.,4.33680868994202E-17));
#227=DIRECTION('',(1.,0.,4.33680868994202E-17));
#228=DIRECTION('',(4.33680868994202E-17,0.,-1.));
#229=DIRECTION('',(0.,1.,0.));
#230=DIRECTION('',(1.,0.,4.33680868994202E-17));
#231=DIRECTION('',(4.33680868994202E-17,0.,-1.));
#232=DIRECTION('',(-4.33680868994202E-17,0.,1.));
#233=DIRECTION('',(0.,1.,0.));
#234=DIRECTION('',(-4.33680868994202E-17,0.,1.));
#235=DIRECTION('',(0.,1.,0.));
#236=DIRECTION('',(1.,0.,0.));
#237=DIRECTION('',(0.,-1.,0.));
#238=DIRECTION('',(-1.,0.,0.));
#239=DIRECTION('',(0.,-1.,0.));
#240=DIRECTION('',(-1.,0.,0.));
#241=DIRECTION('',(0.,-1.,0.));
#242=DIRECTION('',(1.,0.,0.));
#243=DIRECTION('',(0.,-1.,0.));
#244=DIRECTION('',(1.,0.,0.));
#245=CARTESIAN_POINT('',(0.,0.,0.));
#246=CARTESIAN_POINT('',(-0.0129755,-0.03,-0.01));
#247=CARTESIAN_POINT('',(0.0129755,-0.03,-0.01));
#248=CARTESIAN_POINT('',(0.0129755,-0.0675,-0.01));
#249=CARTESIAN_POINT('',(0.0129755,-0.06,-0.01));
#250=CARTESIAN_POINT('',(1.7347234759768E-18,-0.06,-0.01));
#251=CARTESIAN_POINT('',(-0.0129755,-0.06,-0.01));
#252=CARTESIAN_POINT('',(-0.0129755,-0.03,-0.01));
#253=CARTESIAN_POINT('',(-0.0129755,-0.0675,-0.01));
#254=CARTESIAN_POINT('',(-0.0129755,-0.0675,-0.01));
#255=CARTESIAN_POINT('',(-0.0129755,-0.06375,-0.015));
#256=CARTESIAN_POINT('',(0.0129755,-0.06375,-0.015));
#257=CARTESIAN_POINT('',(0.0129755,-0.06,-0.02));
#258=CARTESIAN_POINT('',(-0.0129755,-0.06375,-0.015));
#259=CARTESIAN_POINT('',(-0.0129755,-0.06,-0.02));
#260=CARTESIAN_POINT('',(-0.0129755,-0.06,-0.02));
#261=CARTESIAN_POINT('',(-0.0129755,0.0035,-0.02));
#262=CARTESIAN_POINT('',(0.0129755,0.0035,-0.02));
#263=CARTESIAN_POINT('',(0.0129755,1.84314369322536E-18,-0.02));
#264=CARTESIAN_POINT('',(-0.0129755,0.0035,-0.02));
#265=CARTESIAN_POINT('',(-0.0129755,1.84314369322536E-18,-0.02));
#266=CARTESIAN_POINT('',(-0.0129755,1.84314369322536E-18,-0.02));
#267=CARTESIAN_POINT('',(-0.0129755,0.000595792720559987,-0.0175));
#268=CARTESIAN_POINT('',(0.0129755,0.000595792720559987,-0.0175));
#269=CARTESIAN_POINT('',(0.0129755,0.00119158544111997,-0.015));
#270=CARTESIAN_POINT('',(-0.0129755,0.000595792720559987,-0.0175));
#271=CARTESIAN_POINT('',(-0.0129755,0.00119158544111997,-0.015));
#272=CARTESIAN_POINT('',(-0.0129755,0.00119158544111997,-0.015));
#273=CARTESIAN_POINT('',(-0.0129755,0.000595792720559985,-0.0125));
#274=CARTESIAN_POINT('',(0.0129755,0.000595792720559985,-0.0125));
#275=CARTESIAN_POINT('',(0.0129755,0.,-0.01));
#276=CARTESIAN_POINT('',(-0.0129755,0.000595792720559985,-0.0125));
#277=CARTESIAN_POINT('',(-0.0129755,0.,-0.01));
#278=CARTESIAN_POINT('',(-0.0129755,-6.9931040125315E-18,-0.01));
#279=CARTESIAN_POINT('',(-0.0129755,-0.03575,0.0225));
#280=CARTESIAN_POINT('',(-0.0129755,-0.06,-0.01));
#281=CARTESIAN_POINT('',(0.0129755,-0.03575,0.0225));
#282=CARTESIAN_POINT('',(0.0129755,0.,0.));
#283=CARTESIAN_POINT('',(0.0129755,0.,-0.010842705692355));
#284=CARTESIAN_POINT('',(0.0129755,-0.06,-0.010842705692355));
#285=CARTESIAN_POINT('',(0.0129755,-0.06,-0.010842705692355));
#286=CARTESIAN_POINT('',(0.0129755,-0.06,0.));
#287=CARTESIAN_POINT('',(0.0129755,-0.06,0.389157294307647));
#288=CARTESIAN_POINT('',(0.0129755,0.,0.389157294307647));
#289=CARTESIAN_POINT('',(0.0129755,-0.06,0.389157294307647));
#290=CARTESIAN_POINT('',(1.56125112837912E-17,-0.06,0.));
#291=CARTESIAN_POINT('',(1.56125112837912E-17,0.,0.));
#292=MECHANICAL_DESIGN_GEOMETRIC_PRESENTATION_REPRESENTATION('',(#175),
#293);
#293=(
GEOMETRIC_REPRESENTATION_CONTEXT(3)
GLOBAL_UNCERTAINTY_ASSIGNED_CONTEXT((#294))
GLOBAL_UNIT_ASSIGNED_CONTEXT((#297,#296,#295))
REPRESENTATION_CONTEXT('Part 2','TOP_LEVEL_ASSEMBLY_PART')
);
#294=UNCERTAINTY_MEASURE_WITH_UNIT(LENGTH_MEASURE(1.E-8),#297,
'DISTANCE_ACCURACY_VALUE','Maximum Tolerance applied to model');
#295=(
NAMED_UNIT(*)
SI_UNIT($,.STERADIAN.)
SOLID_ANGLE_UNIT()
);
#296=(
NAMED_UNIT(*)
PLANE_ANGLE_UNIT()
SI_UNIT($,.RADIAN.)
);
#297=(
LENGTH_UNIT()
NAMED_UNIT(*)
SI_UNIT($,.METRE.)
);
#298=PRODUCT_DEFINITION_SHAPE('','',#299);
#299=PRODUCT_DEFINITION('','',#301,#300);
#300=PRODUCT_DEFINITION_CONTEXT('',#307,'design');
#301=PRODUCT_DEFINITION_FORMATION_WITH_SPECIFIED_SOURCE('','',#303,
 .NOT_KNOWN.);
#302=PRODUCT_RELATED_PRODUCT_CATEGORY('','',(#303));
#303=PRODUCT('Part 2','Part 2','Part 2',(#305));
#304=PRODUCT_CATEGORY('','');
#305=PRODUCT_CONTEXT('',#307,'mechanical');
#306=APPLICATION_PROTOCOL_DEFINITION('international standard',
'ap242_managed_model_based_3d_engineering',2020,#307);
#307=APPLICATION_CONTEXT('managed model based 3d engineering');
ENDSEC;
END-ISO-10303-21;
