ISO-10303-21;
HEADER;
/* Generated by software containing ST-Developer
 * from STEP Tools, Inc. (www.steptools.com) 
 */
/* OPTION: using custom renumber hook */

FILE_DESCRIPTION(
/* description */ ('STEP AP242 Edition 2',
'CAx-IF Rec.Pracs.---Representation and Presentation of Product Manufa
cturing Information (PMI)---4.0---2014-10-13',
'CAx-IF Rec.Pracs.---3D Tessellated Geometry---0.4---2014-09-14','2;1',
'CAx-IF Rec.Pracs.---User Defined Attributes---1.5---2016-08-15'),
/* implementation_level */ '2;1');

FILE_NAME(
/* name */ 'Part Studio 1 - Part 1',
/* time_stamp */ '2026-09-29T17:42:15Z',
/* author */ (''),
/* organization */ (''),
/* preprocessor_version */ 'ST-DEVELOPER v20',
/* originating_system */ 'ONSHAPE BY PTC INC, 1.221',
/* authorisation */ '  ');

FILE_SCHEMA (('AP242_MANAGED_MODEL_BASED_3D_ENGINEERING_MIM_LF { 1 0 10303 442 3 1 4 }'));
ENDSEC;

DATA;
#10=SHAPE_REPRESENTATION_RELATIONSHIP('','',#864,#11);
#11=ADVANCED_BREP_SHAPE_REPRESENTATION('',(#862),#1470);
#12=ELLIPSE('',#925,0.00282842712474619,0.002);
#13=ELLIPSE('',#933,0.00282842712474619,0.002);
#14=ELLIPSE('',#937,0.00282842712474619,0.002);
#15=ELLIPSE('',#939,0.00282842712474619,0.002);
#16=ELLIPSE('',#946,0.00282842712474619,0.002);
#17=ELLIPSE('',#948,0.00282842712474619,0.002);
#18=TOROIDAL_SURFACE('',#922,0.008,0.002);
#19=TOROIDAL_SURFACE('',#930,0.008,0.002);
#20=TOROIDAL_SURFACE('',#934,0.003,0.002);
#21=TOROIDAL_SURFACE('',#943,0.003,0.002);
#22=SPHERICAL_SURFACE('',#918,0.002);
#23=SPHERICAL_SURFACE('',#926,0.002);
#24=SPHERICAL_SURFACE('',#942,0.002);
#25=SPHERICAL_SURFACE('',#951,0.002);
#26=PLANE('',#870);
#27=PLANE('',#871);
#28=PLANE('',#872);
#29=PLANE('',#873);
#30=PLANE('',#874);
#31=PLANE('',#877);
#32=PLANE('',#879);
#33=PLANE('',#882);
#34=PLANE('',#883);
#35=PLANE('',#888);
#36=PLANE('',#889);
#37=PLANE('',#890);
#38=PLANE('',#891);
#39=PLANE('',#910);
#40=PLANE('',#911);
#41=PLANE('',#912);
#42=PLANE('',#913);
#43=PLANE('',#914);
#44=PLANE('',#915);
#45=PLANE('',#916);
#46=PLANE('',#917);
#47=CIRCLE('',#867,0.002);
#48=CIRCLE('',#869,0.002);
#49=CIRCLE('',#875,0.008);
#50=CIRCLE('',#876,0.003);
#51=CIRCLE('',#878,0.613);
#52=CIRCLE('',#880,0.008);
#53=CIRCLE('',#881,0.003);
#54=CIRCLE('',#884,0.613);
#55=CIRCLE('',#885,0.613);
#56=CIRCLE('',#887,0.613);
#57=CIRCLE('',#893,0.005);
#58=CIRCLE('',#894,0.005);
#59=CIRCLE('',#896,0.01);
#60=CIRCLE('',#897,0.01);
#61=CIRCLE('',#899,0.002);
#62=CIRCLE('',#900,0.002);
#63=CIRCLE('',#902,0.002);
#64=CIRCLE('',#903,0.002);
#65=CIRCLE('',#905,0.002);
#66=CIRCLE('',#906,0.002);
#67=CIRCLE('',#908,0.002);
#68=CIRCLE('',#909,0.002);
#69=CIRCLE('',#919,0.002);
#70=CIRCLE('',#921,0.002);
#71=CIRCLE('',#923,0.002);
#72=CIRCLE('',#927,0.002);
#73=CIRCLE('',#929,0.002);
#74=CIRCLE('',#931,0.002);
#75=CIRCLE('',#935,0.002);
#76=CIRCLE('',#941,0.002);
#77=CIRCLE('',#944,0.002);
#78=CIRCLE('',#950,0.002);
#79=B_SPLINE_CURVE_WITH_KNOTS('',3,(#1221,#1222,#1223,#1224,#1225),
 .UNSPECIFIED.,.F.,.F.,(4,1,4),(0.,0.00156335370924784,0.00312670741849568),
 .UNSPECIFIED.);
#80=B_SPLINE_CURVE_WITH_KNOTS('',3,(#1234,#1235,#1236,#1237,#1238),
 .UNSPECIFIED.,.F.,.F.,(4,1,4),(0.,0.00156216098174774,0.00312432196349548),
 .UNSPECIFIED.);
#81=ORIENTED_EDGE('',*,*,#323,.F.);
#82=ORIENTED_EDGE('',*,*,#324,.T.);
#83=ORIENTED_EDGE('',*,*,#325,.F.);
#84=ORIENTED_EDGE('',*,*,#326,.F.);
#85=ORIENTED_EDGE('',*,*,#327,.F.);
#86=ORIENTED_EDGE('',*,*,#328,.T.);
#87=ORIENTED_EDGE('',*,*,#329,.F.);
#88=ORIENTED_EDGE('',*,*,#330,.F.);
#89=ORIENTED_EDGE('',*,*,#331,.F.);
#90=ORIENTED_EDGE('',*,*,#332,.F.);
#91=ORIENTED_EDGE('',*,*,#333,.T.);
#92=ORIENTED_EDGE('',*,*,#334,.T.);
#93=ORIENTED_EDGE('',*,*,#335,.T.);
#94=ORIENTED_EDGE('',*,*,#336,.T.);
#95=ORIENTED_EDGE('',*,*,#337,.F.);
#96=ORIENTED_EDGE('',*,*,#338,.F.);
#97=ORIENTED_EDGE('',*,*,#334,.F.);
#98=ORIENTED_EDGE('',*,*,#339,.T.);
#99=ORIENTED_EDGE('',*,*,#340,.T.);
#100=ORIENTED_EDGE('',*,*,#341,.T.);
#101=ORIENTED_EDGE('',*,*,#342,.T.);
#102=ORIENTED_EDGE('',*,*,#343,.T.);
#103=ORIENTED_EDGE('',*,*,#344,.T.);
#104=ORIENTED_EDGE('',*,*,#345,.T.);
#105=ORIENTED_EDGE('',*,*,#346,.F.);
#106=ORIENTED_EDGE('',*,*,#347,.F.);
#107=ORIENTED_EDGE('',*,*,#332,.T.);
#108=ORIENTED_EDGE('',*,*,#348,.T.);
#109=ORIENTED_EDGE('',*,*,#349,.F.);
#110=ORIENTED_EDGE('',*,*,#350,.T.);
#111=ORIENTED_EDGE('',*,*,#351,.F.);
#112=ORIENTED_EDGE('',*,*,#352,.F.);
#113=ORIENTED_EDGE('',*,*,#353,.T.);
#114=ORIENTED_EDGE('',*,*,#354,.T.);
#115=ORIENTED_EDGE('',*,*,#355,.T.);
#116=ORIENTED_EDGE('',*,*,#356,.T.);
#117=ORIENTED_EDGE('',*,*,#357,.T.);
#118=ORIENTED_EDGE('',*,*,#358,.T.);
#119=ORIENTED_EDGE('',*,*,#359,.T.);
#120=ORIENTED_EDGE('',*,*,#360,.T.);
#121=ORIENTED_EDGE('',*,*,#361,.T.);
#122=ORIENTED_EDGE('',*,*,#325,.T.);
#123=ORIENTED_EDGE('',*,*,#362,.T.);
#124=ORIENTED_EDGE('',*,*,#363,.F.);
#125=ORIENTED_EDGE('',*,*,#352,.T.);
#126=ORIENTED_EDGE('',*,*,#364,.T.);
#127=ORIENTED_EDGE('',*,*,#365,.T.);
#128=ORIENTED_EDGE('',*,*,#366,.T.);
#129=ORIENTED_EDGE('',*,*,#367,.F.);
#130=ORIENTED_EDGE('',*,*,#368,.F.);
#131=ORIENTED_EDGE('',*,*,#369,.T.);
#132=ORIENTED_EDGE('',*,*,#370,.T.);
#133=ORIENTED_EDGE('',*,*,#366,.F.);
#134=ORIENTED_EDGE('',*,*,#371,.T.);
#135=ORIENTED_EDGE('',*,*,#372,.T.);
#136=ORIENTED_EDGE('',*,*,#373,.F.);
#137=ORIENTED_EDGE('',*,*,#374,.T.);
#138=ORIENTED_EDGE('',*,*,#375,.T.);
#139=ORIENTED_EDGE('',*,*,#376,.F.);
#140=ORIENTED_EDGE('',*,*,#377,.F.);
#141=ORIENTED_EDGE('',*,*,#378,.F.);
#142=ORIENTED_EDGE('',*,*,#379,.T.);
#143=ORIENTED_EDGE('',*,*,#380,.T.);
#144=ORIENTED_EDGE('',*,*,#372,.F.);
#145=ORIENTED_EDGE('',*,*,#381,.F.);
#146=ORIENTED_EDGE('',*,*,#382,.F.);
#147=ORIENTED_EDGE('',*,*,#350,.F.);
#148=ORIENTED_EDGE('',*,*,#383,.T.);
#149=ORIENTED_EDGE('',*,*,#384,.F.);
#150=ORIENTED_EDGE('',*,*,#327,.T.);
#151=ORIENTED_EDGE('',*,*,#385,.T.);
#152=ORIENTED_EDGE('',*,*,#386,.T.);
#153=ORIENTED_EDGE('',*,*,#387,.T.);
#154=ORIENTED_EDGE('',*,*,#388,.T.);
#155=ORIENTED_EDGE('',*,*,#389,.T.);
#156=ORIENTED_EDGE('',*,*,#390,.T.);
#157=ORIENTED_EDGE('',*,*,#376,.T.);
#158=ORIENTED_EDGE('',*,*,#391,.T.);
#159=ORIENTED_EDGE('',*,*,#353,.F.);
#160=ORIENTED_EDGE('',*,*,#392,.T.);
#161=ORIENTED_EDGE('',*,*,#349,.T.);
#162=ORIENTED_EDGE('',*,*,#363,.T.);
#163=ORIENTED_EDGE('',*,*,#393,.F.);
#164=ORIENTED_EDGE('',*,*,#323,.T.);
#165=ORIENTED_EDGE('',*,*,#394,.T.);
#166=ORIENTED_EDGE('',*,*,#329,.T.);
#167=ORIENTED_EDGE('',*,*,#395,.F.);
#168=ORIENTED_EDGE('',*,*,#383,.F.);
#169=ORIENTED_EDGE('',*,*,#373,.T.);
#170=ORIENTED_EDGE('',*,*,#380,.F.);
#171=ORIENTED_EDGE('',*,*,#396,.F.);
#172=ORIENTED_EDGE('',*,*,#367,.T.);
#173=ORIENTED_EDGE('',*,*,#379,.F.);
#174=ORIENTED_EDGE('',*,*,#397,.T.);
#175=ORIENTED_EDGE('',*,*,#368,.T.);
#176=ORIENTED_EDGE('',*,*,#396,.T.);
#177=ORIENTED_EDGE('',*,*,#398,.T.);
#178=ORIENTED_EDGE('',*,*,#399,.T.);
#179=ORIENTED_EDGE('',*,*,#400,.T.);
#180=ORIENTED_EDGE('',*,*,#401,.T.);
#181=ORIENTED_EDGE('',*,*,#402,.T.);
#182=ORIENTED_EDGE('',*,*,#403,.T.);
#183=ORIENTED_EDGE('',*,*,#404,.T.);
#184=ORIENTED_EDGE('',*,*,#405,.T.);
#185=ORIENTED_EDGE('',*,*,#406,.T.);
#186=ORIENTED_EDGE('',*,*,#407,.T.);
#187=ORIENTED_EDGE('',*,*,#408,.T.);
#188=ORIENTED_EDGE('',*,*,#409,.T.);
#189=ORIENTED_EDGE('',*,*,#394,.F.);
#190=ORIENTED_EDGE('',*,*,#410,.T.);
#191=ORIENTED_EDGE('',*,*,#335,.F.);
#192=ORIENTED_EDGE('',*,*,#411,.T.);
#193=ORIENTED_EDGE('',*,*,#404,.F.);
#194=ORIENTED_EDGE('',*,*,#412,.T.);
#195=ORIENTED_EDGE('',*,*,#401,.F.);
#196=ORIENTED_EDGE('',*,*,#413,.T.);
#197=ORIENTED_EDGE('',*,*,#409,.F.);
#198=ORIENTED_EDGE('',*,*,#414,.T.);
#199=ORIENTED_EDGE('',*,*,#402,.F.);
#200=ORIENTED_EDGE('',*,*,#415,.T.);
#201=ORIENTED_EDGE('',*,*,#406,.F.);
#202=ORIENTED_EDGE('',*,*,#416,.T.);
#203=ORIENTED_EDGE('',*,*,#389,.F.);
#204=ORIENTED_EDGE('',*,*,#417,.T.);
#205=ORIENTED_EDGE('',*,*,#357,.F.);
#206=ORIENTED_EDGE('',*,*,#418,.T.);
#207=ORIENTED_EDGE('',*,*,#408,.F.);
#208=ORIENTED_EDGE('',*,*,#419,.T.);
#209=ORIENTED_EDGE('',*,*,#344,.F.);
#210=ORIENTED_EDGE('',*,*,#420,.T.);
#211=ORIENTED_EDGE('',*,*,#407,.F.);
#212=ORIENTED_EDGE('',*,*,#421,.T.);
#213=ORIENTED_EDGE('',*,*,#378,.T.);
#214=ORIENTED_EDGE('',*,*,#422,.F.);
#215=ORIENTED_EDGE('',*,*,#369,.F.);
#216=ORIENTED_EDGE('',*,*,#397,.F.);
#217=ORIENTED_EDGE('',*,*,#377,.T.);
#218=ORIENTED_EDGE('',*,*,#392,.F.);
#219=ORIENTED_EDGE('',*,*,#370,.F.);
#220=ORIENTED_EDGE('',*,*,#422,.T.);
#221=ORIENTED_EDGE('',*,*,#381,.T.);
#222=ORIENTED_EDGE('',*,*,#371,.F.);
#223=ORIENTED_EDGE('',*,*,#365,.F.);
#224=ORIENTED_EDGE('',*,*,#423,.T.);
#225=ORIENTED_EDGE('',*,*,#382,.T.);
#226=ORIENTED_EDGE('',*,*,#423,.F.);
#227=ORIENTED_EDGE('',*,*,#364,.F.);
#228=ORIENTED_EDGE('',*,*,#351,.T.);
#229=ORIENTED_EDGE('',*,*,#346,.T.);
#230=ORIENTED_EDGE('',*,*,#424,.T.);
#231=ORIENTED_EDGE('',*,*,#340,.F.);
#232=ORIENTED_EDGE('',*,*,#425,.F.);
#233=ORIENTED_EDGE('',*,*,#333,.F.);
#234=ORIENTED_EDGE('',*,*,#347,.T.);
#235=ORIENTED_EDGE('',*,*,#425,.T.);
#236=ORIENTED_EDGE('',*,*,#339,.F.);
#237=ORIENTED_EDGE('',*,*,#348,.F.);
#238=ORIENTED_EDGE('',*,*,#331,.T.);
#239=ORIENTED_EDGE('',*,*,#338,.T.);
#240=ORIENTED_EDGE('',*,*,#426,.F.);
#241=ORIENTED_EDGE('',*,*,#337,.T.);
#242=ORIENTED_EDGE('',*,*,#427,.T.);
#243=ORIENTED_EDGE('',*,*,#342,.F.);
#244=ORIENTED_EDGE('',*,*,#426,.T.);
#245=ORIENTED_EDGE('',*,*,#414,.F.);
#246=ORIENTED_EDGE('',*,*,#418,.F.);
#247=ORIENTED_EDGE('',*,*,#428,.F.);
#248=ORIENTED_EDGE('',*,*,#428,.T.);
#249=ORIENTED_EDGE('',*,*,#356,.F.);
#250=ORIENTED_EDGE('',*,*,#429,.F.);
#251=ORIENTED_EDGE('',*,*,#403,.F.);
#252=ORIENTED_EDGE('',*,*,#429,.T.);
#253=ORIENTED_EDGE('',*,*,#355,.F.);
#254=ORIENTED_EDGE('',*,*,#430,.F.);
#255=ORIENTED_EDGE('',*,*,#412,.F.);
#256=ORIENTED_EDGE('',*,*,#354,.F.);
#257=ORIENTED_EDGE('',*,*,#431,.T.);
#258=ORIENTED_EDGE('',*,*,#398,.F.);
#259=ORIENTED_EDGE('',*,*,#430,.T.);
#260=ORIENTED_EDGE('',*,*,#416,.F.);
#261=ORIENTED_EDGE('',*,*,#415,.F.);
#262=ORIENTED_EDGE('',*,*,#432,.F.);
#263=ORIENTED_EDGE('',*,*,#432,.T.);
#264=ORIENTED_EDGE('',*,*,#405,.F.);
#265=ORIENTED_EDGE('',*,*,#433,.F.);
#266=ORIENTED_EDGE('',*,*,#390,.F.);
#267=ORIENTED_EDGE('',*,*,#433,.T.);
#268=ORIENTED_EDGE('',*,*,#413,.F.);
#269=ORIENTED_EDGE('',*,*,#434,.F.);
#270=ORIENTED_EDGE('',*,*,#374,.F.);
#271=ORIENTED_EDGE('',*,*,#400,.F.);
#272=ORIENTED_EDGE('',*,*,#435,.T.);
#273=ORIENTED_EDGE('',*,*,#375,.F.);
#274=ORIENTED_EDGE('',*,*,#434,.T.);
#275=ORIENTED_EDGE('',*,*,#326,.T.);
#276=ORIENTED_EDGE('',*,*,#361,.F.);
#277=ORIENTED_EDGE('',*,*,#436,.F.);
#278=ORIENTED_EDGE('',*,*,#410,.F.);
#279=ORIENTED_EDGE('',*,*,#436,.T.);
#280=ORIENTED_EDGE('',*,*,#360,.F.);
#281=ORIENTED_EDGE('',*,*,#437,.F.);
#282=ORIENTED_EDGE('',*,*,#336,.F.);
#283=ORIENTED_EDGE('',*,*,#437,.T.);
#284=ORIENTED_EDGE('',*,*,#359,.F.);
#285=ORIENTED_EDGE('',*,*,#438,.F.);
#286=ORIENTED_EDGE('',*,*,#427,.F.);
#287=ORIENTED_EDGE('',*,*,#438,.T.);
#288=ORIENTED_EDGE('',*,*,#358,.F.);
#289=ORIENTED_EDGE('',*,*,#439,.F.);
#290=ORIENTED_EDGE('',*,*,#343,.F.);
#291=ORIENTED_EDGE('',*,*,#439,.T.);
#292=ORIENTED_EDGE('',*,*,#419,.F.);
#293=ORIENTED_EDGE('',*,*,#420,.F.);
#294=ORIENTED_EDGE('',*,*,#330,.T.);
#295=ORIENTED_EDGE('',*,*,#411,.F.);
#296=ORIENTED_EDGE('',*,*,#440,.F.);
#297=ORIENTED_EDGE('',*,*,#385,.F.);
#298=ORIENTED_EDGE('',*,*,#440,.T.);
#299=ORIENTED_EDGE('',*,*,#341,.F.);
#300=ORIENTED_EDGE('',*,*,#441,.F.);
#301=ORIENTED_EDGE('',*,*,#386,.F.);
#302=ORIENTED_EDGE('',*,*,#441,.T.);
#303=ORIENTED_EDGE('',*,*,#424,.F.);
#304=ORIENTED_EDGE('',*,*,#442,.F.);
#305=ORIENTED_EDGE('',*,*,#387,.F.);
#306=ORIENTED_EDGE('',*,*,#442,.T.);
#307=ORIENTED_EDGE('',*,*,#345,.F.);
#308=ORIENTED_EDGE('',*,*,#443,.F.);
#309=ORIENTED_EDGE('',*,*,#388,.F.);
#310=ORIENTED_EDGE('',*,*,#421,.F.);
#311=ORIENTED_EDGE('',*,*,#417,.F.);
#312=ORIENTED_EDGE('',*,*,#443,.T.);
#313=ORIENTED_EDGE('',*,*,#328,.F.);
#314=ORIENTED_EDGE('',*,*,#384,.T.);
#315=ORIENTED_EDGE('',*,*,#395,.T.);
#316=ORIENTED_EDGE('',*,*,#324,.F.);
#317=ORIENTED_EDGE('',*,*,#393,.T.);
#318=ORIENTED_EDGE('',*,*,#362,.F.);
#319=ORIENTED_EDGE('',*,*,#431,.F.);
#320=ORIENTED_EDGE('',*,*,#391,.F.);
#321=ORIENTED_EDGE('',*,*,#435,.F.);
#322=ORIENTED_EDGE('',*,*,#399,.F.);
#323=EDGE_CURVE('',#444,#445,#516,.T.);
#324=EDGE_CURVE('',#444,#446,#79,.T.);
#325=EDGE_CURVE('',#447,#446,#517,.F.);
#326=EDGE_CURVE('',#445,#447,#47,.T.);
#327=EDGE_CURVE('',#448,#449,#518,.T.);
#328=EDGE_CURVE('',#448,#450,#80,.T.);
#329=EDGE_CURVE('',#451,#450,#519,.F.);
#330=EDGE_CURVE('',#449,#451,#48,.T.);
#331=EDGE_CURVE('',#452,#453,#520,.T.);
#332=EDGE_CURVE('',#454,#452,#521,.T.);
#333=EDGE_CURVE('',#454,#455,#522,.T.);
#334=EDGE_CURVE('',#455,#453,#523,.T.);
#335=EDGE_CURVE('',#456,#457,#524,.T.);
#336=EDGE_CURVE('',#457,#458,#525,.T.);
#337=EDGE_CURVE('',#459,#458,#526,.T.);
#338=EDGE_CURVE('',#453,#459,#527,.T.);
#339=EDGE_CURVE('',#455,#460,#528,.T.);
#340=EDGE_CURVE('',#460,#461,#529,.T.);
#341=EDGE_CURVE('',#461,#456,#530,.F.);
#342=EDGE_CURVE('',#462,#463,#531,.T.);
#343=EDGE_CURVE('',#463,#464,#532,.F.);
#344=EDGE_CURVE('',#464,#465,#533,.F.);
#345=EDGE_CURVE('',#465,#466,#534,.T.);
#346=EDGE_CURVE('',#467,#466,#535,.T.);
#347=EDGE_CURVE('',#454,#467,#536,.T.);
#348=EDGE_CURVE('',#452,#462,#537,.T.);
#349=EDGE_CURVE('',#468,#469,#538,.T.);
#350=EDGE_CURVE('',#468,#470,#539,.T.);
#351=EDGE_CURVE('',#471,#470,#540,.T.);
#352=EDGE_CURVE('',#469,#471,#541,.T.);
#353=EDGE_CURVE('',#472,#473,#542,.T.);
#354=EDGE_CURVE('',#473,#474,#543,.T.);
#355=EDGE_CURVE('',#474,#475,#49,.F.);
#356=EDGE_CURVE('',#475,#476,#544,.T.);
#357=EDGE_CURVE('',#476,#477,#545,.T.);
#358=EDGE_CURVE('',#477,#478,#546,.T.);
#359=EDGE_CURVE('',#478,#479,#547,.T.);
#360=EDGE_CURVE('',#479,#480,#548,.F.);
#361=EDGE_CURVE('',#480,#447,#50,.F.);
#362=EDGE_CURVE('',#446,#481,#549,.T.);
#363=EDGE_CURVE('',#469,#481,#550,.T.);
#364=EDGE_CURVE('',#471,#482,#551,.T.);
#365=EDGE_CURVE('',#482,#483,#552,.T.);
#366=EDGE_CURVE('',#483,#484,#553,.T.);
#367=EDGE_CURVE('',#485,#484,#554,.T.);
#368=EDGE_CURVE('',#486,#485,#555,.T.);
#369=EDGE_CURVE('',#486,#487,#556,.T.);
#370=EDGE_CURVE('',#487,#472,#557,.T.);
#371=EDGE_CURVE('',#483,#488,#558,.T.);
#372=EDGE_CURVE('',#488,#489,#559,.T.);
#373=EDGE_CURVE('',#484,#489,#51,.T.);
#374=EDGE_CURVE('',#490,#491,#52,.T.);
#375=EDGE_CURVE('',#491,#492,#560,.F.);
#376=EDGE_CURVE('',#493,#492,#561,.T.);
#377=EDGE_CURVE('',#494,#493,#562,.T.);
#378=EDGE_CURVE('',#495,#494,#563,.T.);
#379=EDGE_CURVE('',#495,#496,#564,.T.);
#380=EDGE_CURVE('',#496,#489,#565,.T.);
#381=EDGE_CURVE('',#497,#488,#566,.T.);
#382=EDGE_CURVE('',#470,#497,#567,.T.);
#383=EDGE_CURVE('',#468,#498,#568,.T.);
#384=EDGE_CURVE('',#448,#498,#569,.T.);
#385=EDGE_CURVE('',#449,#499,#53,.T.);
#386=EDGE_CURVE('',#499,#500,#570,.T.);
#387=EDGE_CURVE('',#500,#501,#571,.F.);
#388=EDGE_CURVE('',#501,#502,#572,.F.);
#389=EDGE_CURVE('',#502,#503,#573,.T.);
#390=EDGE_CURVE('',#503,#490,#574,.F.);
#391=EDGE_CURVE('',#492,#473,#575,.F.);
#392=EDGE_CURVE('',#472,#493,#576,.T.);
#393=EDGE_CURVE('',#444,#481,#54,.T.);
#394=EDGE_CURVE('',#445,#451,#577,.F.);
#395=EDGE_CURVE('',#498,#450,#55,.T.);
#396=EDGE_CURVE('',#485,#496,#56,.T.);
#397=EDGE_CURVE('',#495,#486,#578,.T.);
#398=EDGE_CURVE('',#504,#505,#579,.F.);
#399=EDGE_CURVE('',#505,#506,#580,.T.);
#400=EDGE_CURVE('',#506,#507,#581,.T.);
#401=EDGE_CURVE('',#507,#504,#582,.T.);
#402=EDGE_CURVE('',#508,#509,#583,.T.);
#403=EDGE_CURVE('',#509,#510,#584,.F.);
#404=EDGE_CURVE('',#510,#511,#585,.F.);
#405=EDGE_CURVE('',#511,#508,#586,.T.);
#406=EDGE_CURVE('',#512,#513,#587,.F.);
#407=EDGE_CURVE('',#513,#514,#588,.T.);
#408=EDGE_CURVE('',#514,#515,#589,.F.);
#409=EDGE_CURVE('',#515,#512,#590,.F.);
#410=EDGE_CURVE('',#445,#457,#57,.T.);
#411=EDGE_CURVE('',#456,#451,#58,.F.);
#412=EDGE_CURVE('',#510,#504,#59,.T.);
#413=EDGE_CURVE('',#507,#511,#60,.F.);
#414=EDGE_CURVE('',#515,#509,#61,.T.);
#415=EDGE_CURVE('',#508,#512,#62,.F.);
#416=EDGE_CURVE('',#512,#503,#63,.F.);
#417=EDGE_CURVE('',#502,#513,#64,.T.);
#418=EDGE_CURVE('',#476,#515,#65,.F.);
#419=EDGE_CURVE('',#514,#477,#66,.T.);
#420=EDGE_CURVE('',#464,#514,#67,.T.);
#421=EDGE_CURVE('',#513,#465,#68,.F.);
#422=EDGE_CURVE('',#487,#494,#591,.T.);
#423=EDGE_CURVE('',#482,#497,#592,.T.);
#424=EDGE_CURVE('',#466,#461,#593,.T.);
#425=EDGE_CURVE('',#467,#460,#594,.T.);
#426=EDGE_CURVE('',#462,#459,#595,.T.);
#427=EDGE_CURVE('',#458,#463,#596,.F.);
#428=EDGE_CURVE('',#509,#476,#69,.T.);
#429=EDGE_CURVE('',#510,#475,#70,.T.);
#430=EDGE_CURVE('',#504,#474,#71,.T.);
#431=EDGE_CURVE('',#473,#505,#12,.F.);
#432=EDGE_CURVE('',#503,#508,#72,.T.);
#433=EDGE_CURVE('',#490,#511,#73,.T.);
#434=EDGE_CURVE('',#491,#507,#74,.T.);
#435=EDGE_CURVE('',#506,#492,#13,.T.);
#436=EDGE_CURVE('',#457,#480,#75,.T.);
#437=EDGE_CURVE('',#458,#479,#14,.F.);
#438=EDGE_CURVE('',#463,#478,#15,.F.);
#439=EDGE_CURVE('',#464,#477,#76,.T.);
#440=EDGE_CURVE('',#499,#456,#77,.T.);
#441=EDGE_CURVE('',#500,#461,#16,.F.);
#442=EDGE_CURVE('',#501,#466,#17,.T.);
#443=EDGE_CURVE('',#502,#465,#78,.T.);
#444=VERTEX_POINT('',#1219);
#445=VERTEX_POINT('',#1220);
#446=VERTEX_POINT('',#1226);
#447=VERTEX_POINT('',#1228);
#448=VERTEX_POINT('',#1232);
#449=VERTEX_POINT('',#1233);
#450=VERTEX_POINT('',#1239);
#451=VERTEX_POINT('',#1241);
#452=VERTEX_POINT('',#1245);
#453=VERTEX_POINT('',#1246);
#454=VERTEX_POINT('',#1248);
#455=VERTEX_POINT('',#1250);
#456=VERTEX_POINT('',#1254);
#457=VERTEX_POINT('',#1255);
#458=VERTEX_POINT('',#1257);
#459=VERTEX_POINT('',#1259);
#460=VERTEX_POINT('',#1262);
#461=VERTEX_POINT('',#1264);
#462=VERTEX_POINT('',#1268);
#463=VERTEX_POINT('',#1269);
#464=VERTEX_POINT('',#1271);
#465=VERTEX_POINT('',#1273);
#466=VERTEX_POINT('',#1275);
#467=VERTEX_POINT('',#1277);
#468=VERTEX_POINT('',#1282);
#469=VERTEX_POINT('',#1283);
#470=VERTEX_POINT('',#1285);
#471=VERTEX_POINT('',#1287);
#472=VERTEX_POINT('',#1291);
#473=VERTEX_POINT('',#1292);
#474=VERTEX_POINT('',#1294);
#475=VERTEX_POINT('',#1296);
#476=VERTEX_POINT('',#1298);
#477=VERTEX_POINT('',#1300);
#478=VERTEX_POINT('',#1302);
#479=VERTEX_POINT('',#1304);
#480=VERTEX_POINT('',#1306);
#481=VERTEX_POINT('',#1309);
#482=VERTEX_POINT('',#1312);
#483=VERTEX_POINT('',#1314);
#484=VERTEX_POINT('',#1316);
#485=VERTEX_POINT('',#1318);
#486=VERTEX_POINT('',#1320);
#487=VERTEX_POINT('',#1322);
#488=VERTEX_POINT('',#1326);
#489=VERTEX_POINT('',#1328);
#490=VERTEX_POINT('',#1332);
#491=VERTEX_POINT('',#1333);
#492=VERTEX_POINT('',#1335);
#493=VERTEX_POINT('',#1337);
#494=VERTEX_POINT('',#1339);
#495=VERTEX_POINT('',#1341);
#496=VERTEX_POINT('',#1343);
#497=VERTEX_POINT('',#1346);
#498=VERTEX_POINT('',#1349);
#499=VERTEX_POINT('',#1352);
#500=VERTEX_POINT('',#1354);
#501=VERTEX_POINT('',#1356);
#502=VERTEX_POINT('',#1358);
#503=VERTEX_POINT('',#1360);
#504=VERTEX_POINT('',#1375);
#505=VERTEX_POINT('',#1376);
#506=VERTEX_POINT('',#1378);
#507=VERTEX_POINT('',#1380);
#508=VERTEX_POINT('',#1384);
#509=VERTEX_POINT('',#1385);
#510=VERTEX_POINT('',#1387);
#511=VERTEX_POINT('',#1389);
#512=VERTEX_POINT('',#1393);
#513=VERTEX_POINT('',#1394);
#514=VERTEX_POINT('',#1396);
#515=VERTEX_POINT('',#1398);
#516=LINE('',#1218,#597);
#517=LINE('',#1227,#598);
#518=LINE('',#1231,#599);
#519=LINE('',#1240,#600);
#520=LINE('',#1244,#601);
#521=LINE('',#1247,#602);
#522=LINE('',#1249,#603);
#523=LINE('',#1251,#604);
#524=LINE('',#1253,#605);
#525=LINE('',#1256,#606);
#526=LINE('',#1258,#607);
#527=LINE('',#1260,#608);
#528=LINE('',#1261,#609);
#529=LINE('',#1263,#610);
#530=LINE('',#1265,#611);
#531=LINE('',#1267,#612);
#532=LINE('',#1270,#613);
#533=LINE('',#1272,#614);
#534=LINE('',#1274,#615);
#535=LINE('',#1276,#616);
#536=LINE('',#1278,#617);
#537=LINE('',#1279,#618);
#538=LINE('',#1281,#619);
#539=LINE('',#1284,#620);
#540=LINE('',#1286,#621);
#541=LINE('',#1288,#622);
#542=LINE('',#1290,#623);
#543=LINE('',#1293,#624);
#544=LINE('',#1297,#625);
#545=LINE('',#1299,#626);
#546=LINE('',#1301,#627);
#547=LINE('',#1303,#628);
#548=LINE('',#1305,#629);
#549=LINE('',#1308,#630);
#550=LINE('',#1310,#631);
#551=LINE('',#1311,#632);
#552=LINE('',#1313,#633);
#553=LINE('',#1315,#634);
#554=LINE('',#1317,#635);
#555=LINE('',#1319,#636);
#556=LINE('',#1321,#637);
#557=LINE('',#1323,#638);
#558=LINE('',#1325,#639);
#559=LINE('',#1327,#640);
#560=LINE('',#1334,#641);
#561=LINE('',#1336,#642);
#562=LINE('',#1338,#643);
#563=LINE('',#1340,#644);
#564=LINE('',#1342,#645);
#565=LINE('',#1344,#646);
#566=LINE('',#1345,#647);
#567=LINE('',#1347,#648);
#568=LINE('',#1348,#649);
#569=LINE('',#1350,#650);
#570=LINE('',#1353,#651);
#571=LINE('',#1355,#652);
#572=LINE('',#1357,#653);
#573=LINE('',#1359,#654);
#574=LINE('',#1361,#655);
#575=LINE('',#1363,#656);
#576=LINE('',#1364,#657);
#577=LINE('',#1367,#658);
#578=LINE('',#1372,#659);
#579=LINE('',#1374,#660);
#580=LINE('',#1377,#661);
#581=LINE('',#1379,#662);
#582=LINE('',#1381,#663);
#583=LINE('',#1383,#664);
#584=LINE('',#1386,#665);
#585=LINE('',#1388,#666);
#586=LINE('',#1390,#667);
#587=LINE('',#1392,#668);
#588=LINE('',#1395,#669);
#589=LINE('',#1397,#670);
#590=LINE('',#1399,#671);
#591=LINE('',#1419,#672);
#592=LINE('',#1422,#673);
#593=LINE('',#1425,#674);
#594=LINE('',#1426,#675);
#595=LINE('',#1429,#676);
#596=LINE('',#1431,#677);
#597=VECTOR('',#959,1.);
#598=VECTOR('',#960,1.);
#599=VECTOR('',#965,1.);
#600=VECTOR('',#966,1.);
#601=VECTOR('',#971,1.);
#602=VECTOR('',#972,1.);
#603=VECTOR('',#973,1.);
#604=VECTOR('',#974,1.);
#605=VECTOR('',#977,1.);
#606=VECTOR('',#978,1.);
#607=VECTOR('',#979,1.);
#608=VECTOR('',#980,1.);
#609=VECTOR('',#981,1.);
#610=VECTOR('',#982,1.);
#611=VECTOR('',#983,1.);
#612=VECTOR('',#986,1.);
#613=VECTOR('',#987,1.);
#614=VECTOR('',#988,1.);
#615=VECTOR('',#989,1.);
#616=VECTOR('',#990,1.);
#617=VECTOR('',#991,1.);
#618=VECTOR('',#992,1.);
#619=VECTOR('',#995,1.);
#620=VECTOR('',#996,1.);
#621=VECTOR('',#997,1.);
#622=VECTOR('',#998,1.);
#623=VECTOR('',#1001,1.);
#624=VECTOR('',#1002,1.);
#625=VECTOR('',#1005,1.);
#626=VECTOR('',#1006,1.);
#627=VECTOR('',#1007,1.);
#628=VECTOR('',#1008,1.);
#629=VECTOR('',#1009,1.);
#630=VECTOR('',#1012,1.);
#631=VECTOR('',#1013,1.);
#632=VECTOR('',#1014,1.);
#633=VECTOR('',#1015,1.);
#634=VECTOR('',#1016,1.);
#635=VECTOR('',#1017,1.);
#636=VECTOR('',#1018,1.);
#637=VECTOR('',#1019,1.);
#638=VECTOR('',#1020,1.);
#639=VECTOR('',#1023,1.);
#640=VECTOR('',#1024,1.);
#641=VECTOR('',#1031,1.);
#642=VECTOR('',#1032,1.);
#643=VECTOR('',#1033,1.);
#644=VECTOR('',#1034,1.);
#645=VECTOR('',#1035,1.);
#646=VECTOR('',#1036,1.);
#647=VECTOR('',#1037,1.);
#648=VECTOR('',#1038,1.);
#649=VECTOR('',#1039,1.);
#650=VECTOR('',#1040,1.);
#651=VECTOR('',#1043,1.);
#652=VECTOR('',#1044,1.);
#653=VECTOR('',#1045,1.);
#654=VECTOR('',#1046,1.);
#655=VECTOR('',#1047,1.);
#656=VECTOR('',#1050,1.);
#657=VECTOR('',#1051,1.);
#658=VECTOR('',#1056,1.);
#659=VECTOR('',#1065,1.);
#660=VECTOR('',#1068,1.);
#661=VECTOR('',#1069,1.);
#662=VECTOR('',#1070,1.);
#663=VECTOR('',#1071,1.);
#664=VECTOR('',#1074,1.);
#665=VECTOR('',#1075,1.);
#666=VECTOR('',#1076,1.);
#667=VECTOR('',#1077,1.);
#668=VECTOR('',#1080,1.);
#669=VECTOR('',#1081,1.);
#670=VECTOR('',#1082,1.);
#671=VECTOR('',#1083,1.);
#672=VECTOR('',#1122,1.);
#673=VECTOR('',#1127,1.);
#674=VECTOR('',#1132,1.);
#675=VECTOR('',#1133,1.);
#676=VECTOR('',#1138,1.);
#677=VECTOR('',#1141,1.);
#678=EDGE_LOOP('',(#81,#82,#83,#84));
#679=EDGE_LOOP('',(#85,#86,#87,#88));
#680=EDGE_LOOP('',(#89,#90,#91,#92));
#681=EDGE_LOOP('',(#93,#94,#95,#96,#97,#98,#99,#100));
#682=EDGE_LOOP('',(#101,#102,#103,#104,#105,#106,#107,#108));
#683=EDGE_LOOP('',(#109,#110,#111,#112));
#684=EDGE_LOOP('',(#113,#114,#115,#116,#117,#118,#119,#120,#121,#122,#123,
#124,#125,#126,#127,#128,#129,#130,#131,#132));
#685=EDGE_LOOP('',(#133,#134,#135,#136));
#686=EDGE_LOOP('',(#137,#138,#139,#140,#141,#142,#143,#144,#145,#146,#147,
#148,#149,#150,#151,#152,#153,#154,#155,#156));
#687=EDGE_LOOP('',(#157,#158,#159,#160));
#688=EDGE_LOOP('',(#161,#162,#163,#164,#165,#166,#167,#168));
#689=EDGE_LOOP('',(#169,#170,#171,#172));
#690=EDGE_LOOP('',(#173,#174,#175,#176));
#691=EDGE_LOOP('',(#177,#178,#179,#180));
#692=EDGE_LOOP('',(#181,#182,#183,#184));
#693=EDGE_LOOP('',(#185,#186,#187,#188));
#694=EDGE_LOOP('',(#189,#190,#191,#192));
#695=EDGE_LOOP('',(#193,#194,#195,#196));
#696=EDGE_LOOP('',(#197,#198,#199,#200));
#697=EDGE_LOOP('',(#201,#202,#203,#204));
#698=EDGE_LOOP('',(#205,#206,#207,#208));
#699=EDGE_LOOP('',(#209,#210,#211,#212));
#700=EDGE_LOOP('',(#213,#214,#215,#216));
#701=EDGE_LOOP('',(#217,#218,#219,#220));
#702=EDGE_LOOP('',(#221,#222,#223,#224));
#703=EDGE_LOOP('',(#225,#226,#227,#228));
#704=EDGE_LOOP('',(#229,#230,#231,#232));
#705=EDGE_LOOP('',(#233,#234,#235,#236));
#706=EDGE_LOOP('',(#237,#238,#239,#240));
#707=EDGE_LOOP('',(#241,#242,#243,#244));
#708=EDGE_LOOP('',(#245,#246,#247));
#709=EDGE_LOOP('',(#248,#249,#250,#251));
#710=EDGE_LOOP('',(#252,#253,#254,#255));
#711=EDGE_LOOP('',(#256,#257,#258,#259));
#712=EDGE_LOOP('',(#260,#261,#262));
#713=EDGE_LOOP('',(#263,#264,#265,#266));
#714=EDGE_LOOP('',(#267,#268,#269,#270));
#715=EDGE_LOOP('',(#271,#272,#273,#274));
#716=EDGE_LOOP('',(#275,#276,#277,#278));
#717=EDGE_LOOP('',(#279,#280,#281,#282));
#718=EDGE_LOOP('',(#283,#284,#285,#286));
#719=EDGE_LOOP('',(#287,#288,#289,#290));
#720=EDGE_LOOP('',(#291,#292,#293));
#721=EDGE_LOOP('',(#294,#295,#296,#297));
#722=EDGE_LOOP('',(#298,#299,#300,#301));
#723=EDGE_LOOP('',(#302,#303,#304,#305));
#724=EDGE_LOOP('',(#306,#307,#308,#309));
#725=EDGE_LOOP('',(#310,#311,#312));
#726=EDGE_LOOP('',(#313,#314,#315));
#727=EDGE_LOOP('',(#316,#317,#318));
#728=EDGE_LOOP('',(#319,#320,#321,#322));
#729=FACE_BOUND('',#678,.T.);
#730=FACE_BOUND('',#679,.T.);
#731=FACE_BOUND('',#680,.T.);
#732=FACE_BOUND('',#681,.T.);
#733=FACE_BOUND('',#682,.T.);
#734=FACE_BOUND('',#683,.T.);
#735=FACE_BOUND('',#684,.T.);
#736=FACE_BOUND('',#685,.T.);
#737=FACE_BOUND('',#686,.T.);
#738=FACE_BOUND('',#687,.T.);
#739=FACE_BOUND('',#688,.T.);
#740=FACE_BOUND('',#689,.T.);
#741=FACE_BOUND('',#690,.T.);
#742=FACE_BOUND('',#691,.T.);
#743=FACE_BOUND('',#692,.T.);
#744=FACE_BOUND('',#693,.T.);
#745=FACE_BOUND('',#694,.T.);
#746=FACE_BOUND('',#695,.T.);
#747=FACE_BOUND('',#696,.T.);
#748=FACE_BOUND('',#697,.T.);
#749=FACE_BOUND('',#698,.T.);
#750=FACE_BOUND('',#699,.T.);
#751=FACE_BOUND('',#700,.T.);
#752=FACE_BOUND('',#701,.T.);
#753=FACE_BOUND('',#702,.T.);
#754=FACE_BOUND('',#703,.T.);
#755=FACE_BOUND('',#704,.T.);
#756=FACE_BOUND('',#705,.T.);
#757=FACE_BOUND('',#706,.T.);
#758=FACE_BOUND('',#707,.T.);
#759=FACE_BOUND('',#708,.T.);
#760=FACE_BOUND('',#709,.T.);
#761=FACE_BOUND('',#710,.T.);
#762=FACE_BOUND('',#711,.T.);
#763=FACE_BOUND('',#712,.T.);
#764=FACE_BOUND('',#713,.T.);
#765=FACE_BOUND('',#714,.T.);
#766=FACE_BOUND('',#715,.T.);
#767=FACE_BOUND('',#716,.T.);
#768=FACE_BOUND('',#717,.T.);
#769=FACE_BOUND('',#718,.T.);
#770=FACE_BOUND('',#719,.T.);
#771=FACE_BOUND('',#720,.T.);
#772=FACE_BOUND('',#721,.T.);
#773=FACE_BOUND('',#722,.T.);
#774=FACE_BOUND('',#723,.T.);
#775=FACE_BOUND('',#724,.T.);
#776=FACE_BOUND('',#725,.T.);
#777=FACE_BOUND('',#726,.T.);
#778=FACE_BOUND('',#727,.T.);
#779=FACE_BOUND('',#728,.T.);
#780=CYLINDRICAL_SURFACE('',#866,0.002);
#781=CYLINDRICAL_SURFACE('',#868,0.002);
#782=CYLINDRICAL_SURFACE('',#886,0.613);
#783=CYLINDRICAL_SURFACE('',#892,0.005);
#784=CYLINDRICAL_SURFACE('',#895,0.01);
#785=CYLINDRICAL_SURFACE('',#898,0.002);
#786=CYLINDRICAL_SURFACE('',#901,0.002);
#787=CYLINDRICAL_SURFACE('',#904,0.002);
#788=CYLINDRICAL_SURFACE('',#907,0.002);
#789=CYLINDRICAL_SURFACE('',#920,0.002);
#790=CYLINDRICAL_SURFACE('',#924,0.002);
#791=CYLINDRICAL_SURFACE('',#928,0.002);
#792=CYLINDRICAL_SURFACE('',#932,0.002);
#793=CYLINDRICAL_SURFACE('',#936,0.002);
#794=CYLINDRICAL_SURFACE('',#938,0.002);
#795=CYLINDRICAL_SURFACE('',#940,0.002);
#796=CYLINDRICAL_SURFACE('',#945,0.002);
#797=CYLINDRICAL_SURFACE('',#947,0.002);
#798=CYLINDRICAL_SURFACE('',#949,0.002);
#799=CYLINDRICAL_SURFACE('',#952,0.613);
#800=CYLINDRICAL_SURFACE('',#953,0.613);
#801=CYLINDRICAL_SURFACE('',#954,0.002);
#802=ADVANCED_FACE('',(#729),#780,.T.);
#803=ADVANCED_FACE('',(#730),#781,.T.);
#804=ADVANCED_FACE('',(#731),#26,.F.);
#805=ADVANCED_FACE('',(#732),#27,.T.);
#806=ADVANCED_FACE('',(#733),#28,.F.);
#807=ADVANCED_FACE('',(#734),#29,.F.);
#808=ADVANCED_FACE('',(#735),#30,.F.);
#809=ADVANCED_FACE('',(#736),#31,.F.);
#810=ADVANCED_FACE('',(#737),#32,.T.);
#811=ADVANCED_FACE('',(#738),#33,.F.);
#812=ADVANCED_FACE('',(#739),#34,.T.);
#813=ADVANCED_FACE('',(#740),#782,.T.);
#814=ADVANCED_FACE('',(#741),#35,.F.);
#815=ADVANCED_FACE('',(#742),#36,.T.);
#816=ADVANCED_FACE('',(#743),#37,.F.);
#817=ADVANCED_FACE('',(#744),#38,.T.);
#818=ADVANCED_FACE('',(#745),#783,.T.);
#819=ADVANCED_FACE('',(#746),#784,.T.);
#820=ADVANCED_FACE('',(#747),#785,.T.);
#821=ADVANCED_FACE('',(#748),#786,.T.);
#822=ADVANCED_FACE('',(#749),#787,.T.);
#823=ADVANCED_FACE('',(#750),#788,.T.);
#824=ADVANCED_FACE('',(#751),#39,.F.);
#825=ADVANCED_FACE('',(#752),#40,.F.);
#826=ADVANCED_FACE('',(#753),#41,.F.);
#827=ADVANCED_FACE('',(#754),#42,.F.);
#828=ADVANCED_FACE('',(#755),#43,.T.);
#829=ADVANCED_FACE('',(#756),#44,.T.);
#830=ADVANCED_FACE('',(#757),#45,.F.);
#831=ADVANCED_FACE('',(#758),#46,.F.);
#832=ADVANCED_FACE('',(#759),#22,.T.);
#833=ADVANCED_FACE('',(#760),#789,.T.);
#834=ADVANCED_FACE('',(#761),#18,.T.);
#835=ADVANCED_FACE('',(#762),#790,.T.);
#836=ADVANCED_FACE('',(#763),#23,.T.);
#837=ADVANCED_FACE('',(#764),#791,.T.);
#838=ADVANCED_FACE('',(#765),#19,.T.);
#839=ADVANCED_FACE('',(#766),#792,.T.);
#840=ADVANCED_FACE('',(#767),#20,.T.);
#841=ADVANCED_FACE('',(#768),#793,.T.);
#842=ADVANCED_FACE('',(#769),#794,.T.);
#843=ADVANCED_FACE('',(#770),#795,.T.);
#844=ADVANCED_FACE('',(#771),#24,.T.);
#845=ADVANCED_FACE('',(#772),#21,.T.);
#846=ADVANCED_FACE('',(#773),#796,.T.);
#847=ADVANCED_FACE('',(#774),#797,.T.);
#848=ADVANCED_FACE('',(#775),#798,.T.);
#849=ADVANCED_FACE('',(#776),#25,.T.);
#850=ADVANCED_FACE('',(#777),#799,.F.);
#851=ADVANCED_FACE('',(#778),#800,.F.);
#852=ADVANCED_FACE('',(#779),#801,.T.);
#853=CLOSED_SHELL('',(#802,#803,#804,#805,#806,#807,#808,#809,#810,#811,
#812,#813,#814,#815,#816,#817,#818,#819,#820,#821,#822,#823,#824,#825,#826,
#827,#828,#829,#830,#831,#832,#833,#834,#835,#836,#837,#838,#839,#840,#841,
#842,#843,#844,#845,#846,#847,#848,#849,#850,#851,#852));
#854=STYLED_ITEM('',(#855),#862);
#855=PRESENTATION_STYLE_ASSIGNMENT((#856));
#856=SURFACE_STYLE_USAGE(.BOTH.,#857);
#857=SURFACE_SIDE_STYLE('',(#858));
#858=SURFACE_STYLE_FILL_AREA(#859);
#859=FILL_AREA_STYLE('',(#860));
#860=FILL_AREA_STYLE_COLOUR('',#861);
#861=COLOUR_RGB('',0.874509803921569,0.447058823529412,0.31764705882353);
#862=MANIFOLD_SOLID_BREP('Part 1',#853);
#863=SHAPE_DEFINITION_REPRESENTATION(#1475,#864);
#864=SHAPE_REPRESENTATION('Part 1',(#865),#1470);
#865=AXIS2_PLACEMENT_3D('',#1216,#955,#956);
#866=AXIS2_PLACEMENT_3D('',#1217,#957,#958);
#867=AXIS2_PLACEMENT_3D('',#1229,#961,#962);
#868=AXIS2_PLACEMENT_3D('',#1230,#963,#964);
#869=AXIS2_PLACEMENT_3D('',#1242,#967,#968);
#870=AXIS2_PLACEMENT_3D('',#1243,#969,#970);
#871=AXIS2_PLACEMENT_3D('',#1252,#975,#976);
#872=AXIS2_PLACEMENT_3D('',#1266,#984,#985);
#873=AXIS2_PLACEMENT_3D('',#1280,#993,#994);
#874=AXIS2_PLACEMENT_3D('',#1289,#999,#1000);
#875=AXIS2_PLACEMENT_3D('',#1295,#1003,#1004);
#876=AXIS2_PLACEMENT_3D('',#1307,#1010,#1011);
#877=AXIS2_PLACEMENT_3D('',#1324,#1021,#1022);
#878=AXIS2_PLACEMENT_3D('',#1329,#1025,#1026);
#879=AXIS2_PLACEMENT_3D('',#1330,#1027,#1028);
#880=AXIS2_PLACEMENT_3D('',#1331,#1029,#1030);
#881=AXIS2_PLACEMENT_3D('',#1351,#1041,#1042);
#882=AXIS2_PLACEMENT_3D('',#1362,#1048,#1049);
#883=AXIS2_PLACEMENT_3D('',#1365,#1052,#1053);
#884=AXIS2_PLACEMENT_3D('',#1366,#1054,#1055);
#885=AXIS2_PLACEMENT_3D('',#1368,#1057,#1058);
#886=AXIS2_PLACEMENT_3D('',#1369,#1059,#1060);
#887=AXIS2_PLACEMENT_3D('',#1370,#1061,#1062);
#888=AXIS2_PLACEMENT_3D('',#1371,#1063,#1064);
#889=AXIS2_PLACEMENT_3D('',#1373,#1066,#1067);
#890=AXIS2_PLACEMENT_3D('',#1382,#1072,#1073);
#891=AXIS2_PLACEMENT_3D('',#1391,#1078,#1079);
#892=AXIS2_PLACEMENT_3D('',#1400,#1084,#1085);
#893=AXIS2_PLACEMENT_3D('',#1401,#1086,#1087);
#894=AXIS2_PLACEMENT_3D('',#1402,#1088,#1089);
#895=AXIS2_PLACEMENT_3D('',#1403,#1090,#1091);
#896=AXIS2_PLACEMENT_3D('',#1404,#1092,#1093);
#897=AXIS2_PLACEMENT_3D('',#1405,#1094,#1095);
#898=AXIS2_PLACEMENT_3D('',#1406,#1096,#1097);
#899=AXIS2_PLACEMENT_3D('',#1407,#1098,#1099);
#900=AXIS2_PLACEMENT_3D('',#1408,#1100,#1101);
#901=AXIS2_PLACEMENT_3D('',#1409,#1102,#1103);
#902=AXIS2_PLACEMENT_3D('',#1410,#1104,#1105);
#903=AXIS2_PLACEMENT_3D('',#1411,#1106,#1107);
#904=AXIS2_PLACEMENT_3D('',#1412,#1108,#1109);
#905=AXIS2_PLACEMENT_3D('',#1413,#1110,#1111);
#906=AXIS2_PLACEMENT_3D('',#1414,#1112,#1113);
#907=AXIS2_PLACEMENT_3D('',#1415,#1114,#1115);
#908=AXIS2_PLACEMENT_3D('',#1416,#1116,#1117);
#909=AXIS2_PLACEMENT_3D('',#1417,#1118,#1119);
#910=AXIS2_PLACEMENT_3D('',#1418,#1120,#1121);
#911=AXIS2_PLACEMENT_3D('',#1420,#1123,#1124);
#912=AXIS2_PLACEMENT_3D('',#1421,#1125,#1126);
#913=AXIS2_PLACEMENT_3D('',#1423,#1128,#1129);
#914=AXIS2_PLACEMENT_3D('',#1424,#1130,#1131);
#915=AXIS2_PLACEMENT_3D('',#1427,#1134,#1135);
#916=AXIS2_PLACEMENT_3D('',#1428,#1136,#1137);
#917=AXIS2_PLACEMENT_3D('',#1430,#1139,#1140);
#918=AXIS2_PLACEMENT_3D('',#1432,#1142,#1143);
#919=AXIS2_PLACEMENT_3D('',#1433,#1144,#1145);
#920=AXIS2_PLACEMENT_3D('',#1434,#1146,#1147);
#921=AXIS2_PLACEMENT_3D('',#1435,#1148,#1149);
#922=AXIS2_PLACEMENT_3D('',#1436,#1150,#1151);
#923=AXIS2_PLACEMENT_3D('',#1437,#1152,#1153);
#924=AXIS2_PLACEMENT_3D('',#1438,#1154,#1155);
#925=AXIS2_PLACEMENT_3D('',#1439,#1156,#1157);
#926=AXIS2_PLACEMENT_3D('',#1440,#1158,#1159);
#927=AXIS2_PLACEMENT_3D('',#1441,#1160,#1161);
#928=AXIS2_PLACEMENT_3D('',#1442,#1162,#1163);
#929=AXIS2_PLACEMENT_3D('',#1443,#1164,#1165);
#930=AXIS2_PLACEMENT_3D('',#1444,#1166,#1167);
#931=AXIS2_PLACEMENT_3D('',#1445,#1168,#1169);
#932=AXIS2_PLACEMENT_3D('',#1446,#1170,#1171);
#933=AXIS2_PLACEMENT_3D('',#1447,#1172,#1173);
#934=AXIS2_PLACEMENT_3D('',#1448,#1174,#1175);
#935=AXIS2_PLACEMENT_3D('',#1449,#1176,#1177);
#936=AXIS2_PLACEMENT_3D('',#1450,#1178,#1179);
#937=AXIS2_PLACEMENT_3D('',#1451,#1180,#1181);
#938=AXIS2_PLACEMENT_3D('',#1452,#1182,#1183);
#939=AXIS2_PLACEMENT_3D('',#1453,#1184,#1185);
#940=AXIS2_PLACEMENT_3D('',#1454,#1186,#1187);
#941=AXIS2_PLACEMENT_3D('',#1455,#1188,#1189);
#942=AXIS2_PLACEMENT_3D('',#1456,#1190,#1191);
#943=AXIS2_PLACEMENT_3D('',#1457,#1192,#1193);
#944=AXIS2_PLACEMENT_3D('',#1458,#1194,#1195);
#945=AXIS2_PLACEMENT_3D('',#1459,#1196,#1197);
#946=AXIS2_PLACEMENT_3D('',#1460,#1198,#1199);
#947=AXIS2_PLACEMENT_3D('',#1461,#1200,#1201);
#948=AXIS2_PLACEMENT_3D('',#1462,#1202,#1203);
#949=AXIS2_PLACEMENT_3D('',#1463,#1204,#1205);
#950=AXIS2_PLACEMENT_3D('',#1464,#1206,#1207);
#951=AXIS2_PLACEMENT_3D('',#1465,#1208,#1209);
#952=AXIS2_PLACEMENT_3D('',#1466,#1210,#1211);
#953=AXIS2_PLACEMENT_3D('',#1467,#1212,#1213);
#954=AXIS2_PLACEMENT_3D('',#1468,#1214,#1215);
#955=DIRECTION('',(0.,0.,1.));
#956=DIRECTION('',(1.,0.,0.));
#957=DIRECTION('',(0.,0.,-1.));
#958=DIRECTION('',(0.,1.,0.));
#959=DIRECTION('',(0.,0.,1.));
#960=DIRECTION('',(0.,0.,1.));
#961=DIRECTION('',(0.,0.,1.));
#962=DIRECTION('',(0.,-1.,0.));
#963=DIRECTION('',(0.,0.,1.));
#964=DIRECTION('',(0.,-1.,0.));
#965=DIRECTION('',(0.,0.,1.));
#966=DIRECTION('',(0.,0.,1.));
#967=DIRECTION('',(0.,0.,1.));
#968=DIRECTION('',(0.,-1.,0.));
#969=DIRECTION('',(0.,-1.,0.));
#970=DIRECTION('',(1.,0.,0.));
#971=DIRECTION('',(0.,0.,-1.));
#972=DIRECTION('',(-1.,0.,0.));
#973=DIRECTION('',(0.,0.,-1.));
#974=DIRECTION('',(-1.,0.,0.));
#975=DIRECTION('',(0.,0.,1.));
#976=DIRECTION('',(0.,-1.,0.));
#977=DIRECTION('',(-1.,0.,0.));
#978=DIRECTION('',(0.,-1.,0.));
#979=DIRECTION('',(-1.,0.,0.));
#980=DIRECTION('',(0.,1.,0.));
#981=DIRECTION('',(0.,1.,0.));
#982=DIRECTION('',(1.,0.,0.));
#983=DIRECTION('',(0.,-1.,0.));
#984=DIRECTION('',(0.,0.,1.));
#985=DIRECTION('',(0.,-1.,0.));
#986=DIRECTION('',(-1.,0.,0.));
#987=DIRECTION('',(0.,-1.,0.));
#988=DIRECTION('',(-1.,0.,0.));
#989=DIRECTION('',(0.,-1.,0.));
#990=DIRECTION('',(1.,0.,0.));
#991=DIRECTION('',(0.,1.,0.));
#992=DIRECTION('',(0.,1.,0.));
#993=DIRECTION('',(0.,0.,1.));
#994=DIRECTION('',(0.,-1.,0.));
#995=DIRECTION('',(-1.,0.,0.));
#996=DIRECTION('',(0.,-1.,0.));
#997=DIRECTION('',(1.,0.,0.));
#998=DIRECTION('',(0.,-1.,0.));
#999=DIRECTION('',(1.,0.,0.));
#1000=DIRECTION('',(0.,-1.,0.));
#1001=DIRECTION('',(0.,-1.,0.));
#1002=DIRECTION('',(0.,0.,1.));
#1003=DIRECTION('',(1.,0.,0.));
#1004=DIRECTION('',(0.,-1.,0.));
#1005=DIRECTION('',(0.,1.,0.));
#1006=DIRECTION('',(0.,0.,-1.));
#1007=DIRECTION('',(0.,-1.,0.));
#1008=DIRECTION('',(0.,0.,-1.));
#1009=DIRECTION('',(0.,-1.,0.));
#1010=DIRECTION('',(1.,0.,0.));
#1011=DIRECTION('',(0.,-1.,0.));
#1012=DIRECTION('',(0.,1.,0.));
#1013=DIRECTION('',(0.,0.,1.));
#1014=DIRECTION('',(0.,0.231824750997282,0.972757567344016));
#1015=DIRECTION('',(0.,-0.231824750997282,0.972757567344016));
#1016=DIRECTION('',(0.,0.,1.));
#1017=DIRECTION('',(0.,1.,0.));
#1018=DIRECTION('',(0.,0.,1.));
#1019=DIRECTION('',(0.,-1.,0.));
#1020=DIRECTION('',(0.,0.6,-0.8));
#1021=DIRECTION('',(0.,1.,0.));
#1022=DIRECTION('',(1.,0.,0.));
#1023=DIRECTION('',(1.,0.,0.));
#1024=DIRECTION('',(0.,0.,1.));
#1025=DIRECTION('',(0.,-1.,0.));
#1026=DIRECTION('',(-1.,0.,0.));
#1027=DIRECTION('',(1.,0.,0.));
#1028=DIRECTION('',(0.,-1.,0.));
#1029=DIRECTION('',(1.,0.,0.));
#1030=DIRECTION('',(0.,-1.,0.));
#1031=DIRECTION('',(0.,0.,1.));
#1032=DIRECTION('',(0.,-1.,0.));
#1033=DIRECTION('',(0.,0.6,-0.8));
#1034=DIRECTION('',(0.,-1.,0.));
#1035=DIRECTION('',(0.,0.,1.));
#1036=DIRECTION('',(0.,1.,0.));
#1037=DIRECTION('',(0.,-0.231824750997282,0.972757567344016));
#1038=DIRECTION('',(0.,0.231824750997282,0.972757567344016));
#1039=DIRECTION('',(0.,0.,1.));
#1040=DIRECTION('',(0.,1.,0.));
#1041=DIRECTION('',(1.,0.,0.));
#1042=DIRECTION('',(0.,-1.,0.));
#1043=DIRECTION('',(0.,-1.,0.));
#1044=DIRECTION('',(0.,0.,-1.));
#1045=DIRECTION('',(0.,-1.,0.));
#1046=DIRECTION('',(0.,0.,1.));
#1047=DIRECTION('',(0.,1.,0.));
#1048=DIRECTION('',(0.,0.,1.));
#1049=DIRECTION('',(0.,-1.,0.));
#1050=DIRECTION('',(1.,0.,0.));
#1051=DIRECTION('',(1.,0.,0.));
#1052=DIRECTION('',(0.,1.,0.));
#1053=DIRECTION('',(1.,0.,0.));
#1054=DIRECTION('',(0.,1.,0.));
#1055=DIRECTION('',(1.,0.,0.));
#1056=DIRECTION('',(-1.,0.,0.));
#1057=DIRECTION('',(0.,1.,0.));
#1058=DIRECTION('',(1.,0.,0.));
#1059=DIRECTION('',(0.,1.,0.));
#1060=DIRECTION('',(1.,0.,0.));
#1061=DIRECTION('',(0.,-1.,0.));
#1062=DIRECTION('',(-1.,0.,0.));
#1063=DIRECTION('',(0.,-1.,0.));
#1064=DIRECTION('',(1.,0.,0.));
#1065=DIRECTION('',(-1.,0.,0.));
#1066=DIRECTION('',(0.,-1.,0.));
#1067=DIRECTION('',(1.,0.,0.));
#1068=DIRECTION('',(0.,0.,1.));
#1069=DIRECTION('',(1.,0.,0.));
#1070=DIRECTION('',(0.,0.,1.));
#1071=DIRECTION('',(-1.,0.,0.));
#1072=DIRECTION('',(0.,0.,-1.));
#1073=DIRECTION('',(0.,1.,0.));
#1074=DIRECTION('',(-1.,0.,0.));
#1075=DIRECTION('',(0.,1.,0.));
#1076=DIRECTION('',(-1.,0.,0.));
#1077=DIRECTION('',(0.,1.,0.));
#1078=DIRECTION('',(0.,1.,0.));
#1079=DIRECTION('',(1.,0.,0.));
#1080=DIRECTION('',(0.,0.,1.));
#1081=DIRECTION('',(-1.,0.,0.));
#1082=DIRECTION('',(0.,0.,-1.));
#1083=DIRECTION('',(-1.,0.,0.));
#1084=DIRECTION('',(-1.,0.,0.));
#1085=DIRECTION('',(0.,1.,0.));
#1086=DIRECTION('',(1.,0.,0.));
#1087=DIRECTION('',(0.,-1.,0.));
#1088=DIRECTION('',(1.,0.,0.));
#1089=DIRECTION('',(0.,-1.,0.));
#1090=DIRECTION('',(1.,0.,0.));
#1091=DIRECTION('',(0.,-1.,0.));
#1092=DIRECTION('',(1.,0.,0.));
#1093=DIRECTION('',(0.,-1.,0.));
#1094=DIRECTION('',(1.,0.,0.));
#1095=DIRECTION('',(0.,-1.,0.));
#1096=DIRECTION('',(1.,0.,0.));
#1097=DIRECTION('',(0.,-1.,0.));
#1098=DIRECTION('',(1.,0.,0.));
#1099=DIRECTION('',(0.,-1.,0.));
#1100=DIRECTION('',(1.,0.,0.));
#1101=DIRECTION('',(0.,-1.,0.));
#1102=DIRECTION('',(0.,0.,1.));
#1103=DIRECTION('',(0.,-1.,0.));
#1104=DIRECTION('',(0.,0.,1.));
#1105=DIRECTION('',(0.,-1.,0.));
#1106=DIRECTION('',(0.,0.,1.));
#1107=DIRECTION('',(0.,-1.,0.));
#1108=DIRECTION('',(0.,0.,1.));
#1109=DIRECTION('',(0.,-1.,0.));
#1110=DIRECTION('',(0.,0.,1.));
#1111=DIRECTION('',(0.,-1.,0.));
#1112=DIRECTION('',(0.,0.,1.));
#1113=DIRECTION('',(0.,-1.,0.));
#1114=DIRECTION('',(1.,0.,0.));
#1115=DIRECTION('',(0.,-1.,0.));
#1116=DIRECTION('',(1.,0.,0.));
#1117=DIRECTION('',(0.,-1.,0.));
#1118=DIRECTION('',(1.,0.,0.));
#1119=DIRECTION('',(0.,-1.,0.));
#1120=DIRECTION('',(0.,0.,1.));
#1121=DIRECTION('',(0.,-1.,0.));
#1122=DIRECTION('',(1.,0.,0.));
#1123=DIRECTION('',(0.,-0.8,-0.6));
#1124=DIRECTION('',(0.,0.6,-0.8));
#1125=DIRECTION('',(0.,0.972757567344016,0.231824750997282));
#1126=DIRECTION('',(0.,-0.231824750997282,0.972757567344016));
#1127=DIRECTION('',(1.,0.,0.));
#1128=DIRECTION('',(0.,0.972757567344016,-0.231824750997282));
#1129=DIRECTION('',(0.,0.231824750997282,0.972757567344016));
#1130=DIRECTION('',(0.,1.,0.));
#1131=DIRECTION('',(1.,0.,0.));
#1132=DIRECTION('',(0.,0.,-1.));
#1133=DIRECTION('',(0.,0.,-1.));
#1134=DIRECTION('',(-1.,0.,0.));
#1135=DIRECTION('',(0.,1.,0.));
#1136=DIRECTION('',(-1.,0.,0.));
#1137=DIRECTION('',(0.,1.,0.));
#1138=DIRECTION('',(0.,0.,-1.));
#1139=DIRECTION('',(0.,-1.,0.));
#1140=DIRECTION('',(-1.,0.,0.));
#1141=DIRECTION('',(0.,0.,-1.));
#1142=DIRECTION('',(0.,1.,0.));
#1143=DIRECTION('',(1.,0.,0.));
#1144=DIRECTION('',(0.,-1.,0.));
#1145=DIRECTION('',(-1.,0.,0.));
#1146=DIRECTION('',(0.,1.,0.));
#1147=DIRECTION('',(1.,0.,0.));
#1148=DIRECTION('',(0.,-1.,0.));
#1149=DIRECTION('',(-1.,0.,0.));
#1150=DIRECTION('',(1.,0.,0.));
#1151=DIRECTION('',(0.,-1.,0.));
#1152=DIRECTION('',(0.,0.,-1.));
#1153=DIRECTION('',(0.,1.,0.));
#1154=DIRECTION('',(0.,0.,-1.));
#1155=DIRECTION('',(0.,1.,0.));
#1156=DIRECTION('',(0.707106781186548,0.,-0.707106781186548));
#1157=DIRECTION('',(-0.707106781186548,0.,-0.707106781186548));
#1158=DIRECTION('',(0.,1.,0.));
#1159=DIRECTION('',(1.,0.,0.));
#1160=DIRECTION('',(0.,-1.,0.));
#1161=DIRECTION('',(-1.,0.,0.));
#1162=DIRECTION('',(0.,-1.,0.));
#1163=DIRECTION('',(-1.,0.,0.));
#1164=DIRECTION('',(0.,-1.,0.));
#1165=DIRECTION('',(-1.,0.,0.));
#1166=DIRECTION('',(1.,0.,0.));
#1167=DIRECTION('',(0.,-1.,0.));
#1168=DIRECTION('',(0.,0.,-1.));
#1169=DIRECTION('',(0.,1.,0.));
#1170=DIRECTION('',(0.,0.,1.));
#1171=DIRECTION('',(0.,-1.,0.));
#1172=DIRECTION('',(0.707106781186548,0.,0.707106781186548));
#1173=DIRECTION('',(-0.707106781186548,0.,0.707106781186548));
#1174=DIRECTION('',(1.,0.,0.));
#1175=DIRECTION('',(0.,-1.,0.));
#1176=DIRECTION('',(0.,-1.,0.));
#1177=DIRECTION('',(-1.,0.,0.));
#1178=DIRECTION('',(0.,1.,0.));
#1179=DIRECTION('',(1.,0.,0.));
#1180=DIRECTION('',(0.,0.707106781186548,-0.707106781186548));
#1181=DIRECTION('',(0.,-0.707106781186548,-0.707106781186548));
#1182=DIRECTION('',(0.,0.,-1.));
#1183=DIRECTION('',(0.,1.,0.));
#1184=DIRECTION('',(0.,-0.707106781186548,-0.707106781186548));
#1185=DIRECTION('',(0.,-0.707106781186548,0.707106781186548));
#1186=DIRECTION('',(0.,-1.,0.));
#1187=DIRECTION('',(-1.,0.,0.));
#1188=DIRECTION('',(0.,1.,0.));
#1189=DIRECTION('',(1.,0.,0.));
#1190=DIRECTION('',(0.,1.,0.));
#1191=DIRECTION('',(1.,0.,0.));
#1192=DIRECTION('',(1.,0.,0.));
#1193=DIRECTION('',(0.,-1.,0.));
#1194=DIRECTION('',(0.,-1.,0.));
#1195=DIRECTION('',(-1.,0.,0.));
#1196=DIRECTION('',(0.,-1.,0.));
#1197=DIRECTION('',(-1.,0.,0.));
#1198=DIRECTION('',(0.,0.707106781186548,-0.707106781186548));
#1199=DIRECTION('',(0.,-0.707106781186548,-0.707106781186548));
#1200=DIRECTION('',(0.,0.,-1.));
#1201=DIRECTION('',(0.,1.,0.));
#1202=DIRECTION('',(0.,0.707106781186548,0.707106781186548));
#1203=DIRECTION('',(0.,0.707106781186548,-0.707106781186548));
#1204=DIRECTION('',(0.,1.,0.));
#1205=DIRECTION('',(1.,0.,0.));
#1206=DIRECTION('',(0.,1.,0.));
#1207=DIRECTION('',(1.,0.,0.));
#1208=DIRECTION('',(0.,1.,0.));
#1209=DIRECTION('',(1.,0.,0.));
#1210=DIRECTION('',(0.,1.,0.));
#1211=DIRECTION('',(1.,0.,0.));
#1212=DIRECTION('',(0.,1.,0.));
#1213=DIRECTION('',(1.,0.,0.));
#1214=DIRECTION('',(-1.,0.,0.));
#1215=DIRECTION('',(0.,1.,0.));
#1216=CARTESIAN_POINT('',(0.,0.,0.));
#1217=CARTESIAN_POINT('',(-0.0155,0.0015,0.));
#1218=CARTESIAN_POINT('',(-0.0155,0.0035,0.015));
#1219=CARTESIAN_POINT('',(-0.0155,0.0035,0.00988889897339718));
#1220=CARTESIAN_POINT('',(-0.0155,0.0035,0.015));
#1221=CARTESIAN_POINT('',(-0.0155,0.0035,0.00988889897339718));
#1222=CARTESIAN_POINT('',(-0.0160278508203757,0.0035,0.00991735635154828));
#1223=CARTESIAN_POINT('',(-0.0170624389704591,0.00306616844684664,0.00997476662138783));
#1224=CARTESIAN_POINT('',(-0.0175,0.0020286398375114,0.01));
#1225=CARTESIAN_POINT('',(-0.0175,0.0015,0.01));
#1226=CARTESIAN_POINT('',(-0.0175,0.0015,0.01));
#1227=CARTESIAN_POINT('',(-0.0175,0.0015,-0.02));
#1228=CARTESIAN_POINT('',(-0.0175,0.0015,0.015));
#1229=CARTESIAN_POINT('',(-0.0155,0.0015,0.015));
#1230=CARTESIAN_POINT('',(0.0155,0.0015,0.));
#1231=CARTESIAN_POINT('',(0.0175,0.0015,0.));
#1232=CARTESIAN_POINT('',(0.0175,0.0015,0.009));
#1233=CARTESIAN_POINT('',(0.0175,0.0015,0.015));
#1234=CARTESIAN_POINT('',(0.0175,0.0015,0.009));
#1235=CARTESIAN_POINT('',(0.0175,0.00202821759816211,0.009));
#1236=CARTESIAN_POINT('',(0.0170653284333566,0.00306330926849922,0.00899978918455033));
#1237=CARTESIAN_POINT('',(0.0160282147773942,0.0035,0.00900153926614176));
#1238=CARTESIAN_POINT('',(0.0155,0.0035,0.00900326265142332));
#1239=CARTESIAN_POINT('',(0.0155,0.0035,0.00900326265142326));
#1240=CARTESIAN_POINT('',(0.0155,0.0035,0.));
#1241=CARTESIAN_POINT('',(0.0155,0.0035,0.015));
#1242=CARTESIAN_POINT('',(0.0155,0.0015,0.015));
#1243=CARTESIAN_POINT('',(3.46944695195361E-18,-0.06,0.));
#1244=CARTESIAN_POINT('',(-0.0125,-0.06,0.065002));
#1245=CARTESIAN_POINT('',(-0.0125,-0.06,0.06));
#1246=CARTESIAN_POINT('',(-0.0125,-0.06,0.02));
#1247=CARTESIAN_POINT('',(0.,-0.06,0.06));
#1248=CARTESIAN_POINT('',(0.0125,-0.06,0.06));
#1249=CARTESIAN_POINT('',(0.0125,-0.06,0.065002));
#1250=CARTESIAN_POINT('',(0.0125,-0.06,0.02));
#1251=CARTESIAN_POINT('',(0.,-0.06,0.02));
#1252=CARTESIAN_POINT('',(0.,0.0035,0.02));
#1253=CARTESIAN_POINT('',(0.,-0.0015,0.02));
#1254=CARTESIAN_POINT('',(0.0155,-0.0015,0.02));
#1255=CARTESIAN_POINT('',(-0.0155,-0.0015,0.02));
#1256=CARTESIAN_POINT('',(-0.0155,-0.055,0.02));
#1257=CARTESIAN_POINT('',(-0.0155,-0.055,0.02));
#1258=CARTESIAN_POINT('',(-0.015,-0.055,0.02));
#1259=CARTESIAN_POINT('',(-0.0125,-0.055,0.02));
#1260=CARTESIAN_POINT('',(-0.0125,-0.0575,0.02));
#1261=CARTESIAN_POINT('',(0.0125,-0.0575,0.02));
#1262=CARTESIAN_POINT('',(0.0125,-0.055,0.02));
#1263=CARTESIAN_POINT('',(0.015,-0.055,0.02));
#1264=CARTESIAN_POINT('',(0.0155,-0.055,0.02));
#1265=CARTESIAN_POINT('',(0.0155,0.0035,0.02));
#1266=CARTESIAN_POINT('',(0.,-0.037,0.06));
#1267=CARTESIAN_POINT('',(-0.015,-0.055,0.06));
#1268=CARTESIAN_POINT('',(-0.0125,-0.055,0.06));
#1269=CARTESIAN_POINT('',(-0.0155,-0.055,0.06));
#1270=CARTESIAN_POINT('',(-0.0155,-0.037,0.06));
#1271=CARTESIAN_POINT('',(-0.0155,-0.039,0.06));
#1272=CARTESIAN_POINT('',(0.0175,-0.039,0.06));
#1273=CARTESIAN_POINT('',(0.0155,-0.039,0.06));
#1274=CARTESIAN_POINT('',(0.0155,-0.055,0.06));
#1275=CARTESIAN_POINT('',(0.0155,-0.055,0.06));
#1276=CARTESIAN_POINT('',(0.015,-0.055,0.06));
#1277=CARTESIAN_POINT('',(0.0125,-0.055,0.06));
#1278=CARTESIAN_POINT('',(0.0125,-0.0575,0.06));
#1279=CARTESIAN_POINT('',(-0.0125,-0.0575,0.06));
#1280=CARTESIAN_POINT('',(0.,0.0035,-0.02));
#1281=CARTESIAN_POINT('',(0.,0.0035,-0.02));
#1282=CARTESIAN_POINT('',(0.0175,0.0035,-0.02));
#1283=CARTESIAN_POINT('',(-0.0175,0.0035,-0.02));
#1284=CARTESIAN_POINT('',(0.0175,0.0035,-0.02));
#1285=CARTESIAN_POINT('',(0.0175,1.84314369322536E-18,-0.02));
#1286=CARTESIAN_POINT('',(-0.0175,1.84314369322536E-18,-0.02));
#1287=CARTESIAN_POINT('',(-0.0175,1.84314369322536E-18,-0.02));
#1288=CARTESIAN_POINT('',(-0.0175,0.0035,-0.02));
#1289=CARTESIAN_POINT('',(-0.0175,0.0035,0.));
#1290=CARTESIAN_POINT('',(-0.0175,0.0035,-0.02));
#1291=CARTESIAN_POINT('',(-0.0175,-0.06,-0.02));
#1292=CARTESIAN_POINT('',(-0.0175,-0.073,-0.02));
#1293=CARTESIAN_POINT('',(-0.0175,-0.073,0.055));
#1294=CARTESIAN_POINT('',(-0.0175,-0.073,0.055));
#1295=CARTESIAN_POINT('',(-0.0175,-0.065,0.055));
#1296=CARTESIAN_POINT('',(-0.0175,-0.065,0.063));
#1297=CARTESIAN_POINT('',(-0.0175,0.0035,0.063));
#1298=CARTESIAN_POINT('',(-0.0175,-0.039,0.063));
#1299=CARTESIAN_POINT('',(-0.0175,-0.039,0.06));
#1300=CARTESIAN_POINT('',(-0.0175,-0.039,0.062));
#1301=CARTESIAN_POINT('',(-0.0175,0.0035,0.062));
#1302=CARTESIAN_POINT('',(-0.0175,-0.057,0.062));
#1303=CARTESIAN_POINT('',(-0.0175,-0.057,0.));
#1304=CARTESIAN_POINT('',(-0.0175,-0.057,0.018));
#1305=CARTESIAN_POINT('',(-0.0175,-0.0015,0.018));
#1306=CARTESIAN_POINT('',(-0.0175,-0.0015,0.018));
#1307=CARTESIAN_POINT('',(-0.0175,-0.0015,0.015));
#1308=CARTESIAN_POINT('',(-0.0175,0.0015,0.01));
#1309=CARTESIAN_POINT('',(-0.0175,0.0035,0.01));
#1310=CARTESIAN_POINT('',(-0.0175,0.0035,0.));
#1311=CARTESIAN_POINT('',(-0.0175,0.000595792720559987,-0.0175));
#1312=CARTESIAN_POINT('',(-0.0175,0.00119158544111997,-0.015));
#1313=CARTESIAN_POINT('',(-0.0175,0.000595792720559985,-0.0125));
#1314=CARTESIAN_POINT('',(-0.0175,-6.9931040125315E-18,-0.01));
#1315=CARTESIAN_POINT('',(-0.0175,0.,0.));
#1316=CARTESIAN_POINT('',(-0.0175,0.,0.01));
#1317=CARTESIAN_POINT('',(-0.0175,-0.06,0.01));
#1318=CARTESIAN_POINT('',(-0.0175,-0.06,0.01));
#1319=CARTESIAN_POINT('',(-0.0175,-0.06,0.));
#1320=CARTESIAN_POINT('',(-0.0175,-0.06,-0.01));
#1321=CARTESIAN_POINT('',(-0.0175,-0.06375,-0.01));
#1322=CARTESIAN_POINT('',(-0.0175,-0.0675,-0.01));
#1323=CARTESIAN_POINT('',(-0.0175,-0.06375,-0.015));
#1324=CARTESIAN_POINT('',(0.,0.,0.));
#1325=CARTESIAN_POINT('',(-0.0175,-6.9931040125315E-18,-0.01));
#1326=CARTESIAN_POINT('',(0.0175,0.,-0.01));
#1327=CARTESIAN_POINT('',(0.0175,0.,0.));
#1328=CARTESIAN_POINT('',(0.0175,0.,0.009));
#1329=CARTESIAN_POINT('',(0.0175,0.,0.622));
#1330=CARTESIAN_POINT('',(0.0175,0.0035,0.));
#1331=CARTESIAN_POINT('',(0.0175,-0.065,0.055));
#1332=CARTESIAN_POINT('',(0.0175,-0.065,0.063));
#1333=CARTESIAN_POINT('',(0.0175,-0.073,0.055));
#1334=CARTESIAN_POINT('',(0.0175,-0.073,0.));
#1335=CARTESIAN_POINT('',(0.0175,-0.073,-0.02));
#1336=CARTESIAN_POINT('',(0.0175,0.0035,-0.02));
#1337=CARTESIAN_POINT('',(0.0175,-0.06,-0.02));
#1338=CARTESIAN_POINT('',(0.0175,-0.06375,-0.015));
#1339=CARTESIAN_POINT('',(0.0175,-0.0675,-0.01));
#1340=CARTESIAN_POINT('',(0.0175,-0.06375,-0.01));
#1341=CARTESIAN_POINT('',(0.0175,-0.06,-0.01));
#1342=CARTESIAN_POINT('',(0.0175,-0.06,0.));
#1343=CARTESIAN_POINT('',(0.0175,-0.06,0.009));
#1344=CARTESIAN_POINT('',(0.0175,-0.06,0.009));
#1345=CARTESIAN_POINT('',(0.0175,0.000595792720559985,-0.0125));
#1346=CARTESIAN_POINT('',(0.0175,0.00119158544111997,-0.015));
#1347=CARTESIAN_POINT('',(0.0175,0.000595792720559987,-0.0175));
#1348=CARTESIAN_POINT('',(0.0175,0.0035,0.));
#1349=CARTESIAN_POINT('',(0.0175,0.0035,0.009));
#1350=CARTESIAN_POINT('',(0.0175,0.0015,0.009));
#1351=CARTESIAN_POINT('',(0.0175,-0.0015,0.015));
#1352=CARTESIAN_POINT('',(0.0175,-0.0015,0.018));
#1353=CARTESIAN_POINT('',(0.0175,0.0035,0.018));
#1354=CARTESIAN_POINT('',(0.0175,-0.057,0.018));
#1355=CARTESIAN_POINT('',(0.0175,-0.057,0.));
#1356=CARTESIAN_POINT('',(0.0175,-0.057,0.062));
#1357=CARTESIAN_POINT('',(0.0175,-0.039,0.062));
#1358=CARTESIAN_POINT('',(0.0175,-0.039,0.062));
#1359=CARTESIAN_POINT('',(0.0175,-0.039,0.));
#1360=CARTESIAN_POINT('',(0.0175,-0.039,0.063));
#1361=CARTESIAN_POINT('',(0.0175,-0.065,0.063));
#1362=CARTESIAN_POINT('',(0.,0.0035,-0.02));
#1363=CARTESIAN_POINT('',(-0.0155,-0.073,-0.02));
#1364=CARTESIAN_POINT('',(-0.0175,-0.06,-0.02));
#1365=CARTESIAN_POINT('',(0.,0.0035,0.));
#1366=CARTESIAN_POINT('',(0.0175,0.0035,0.622));
#1367=CARTESIAN_POINT('',(0.,0.0035,0.015));
#1368=CARTESIAN_POINT('',(0.0175,0.0035,0.622));
#1369=CARTESIAN_POINT('',(0.0175,-0.06,0.622));
#1370=CARTESIAN_POINT('',(0.0175,-0.06,0.622));
#1371=CARTESIAN_POINT('',(3.46944695195361E-18,-0.06,0.));
#1372=CARTESIAN_POINT('',(3.46944695195361E-18,-0.06,-0.01));
#1373=CARTESIAN_POINT('',(3.46944695195361E-18,-0.075,0.));
#1374=CARTESIAN_POINT('',(-0.0155,-0.075,-0.02));
#1375=CARTESIAN_POINT('',(-0.0155,-0.075,0.055));
#1376=CARTESIAN_POINT('',(-0.0155,-0.075,-0.018));
#1377=CARTESIAN_POINT('',(0.0155,-0.075,-0.018));
#1378=CARTESIAN_POINT('',(0.0155,-0.075,-0.018));
#1379=CARTESIAN_POINT('',(0.0155,-0.075,0.));
#1380=CARTESIAN_POINT('',(0.0155,-0.075,0.055));
#1381=CARTESIAN_POINT('',(-0.0175,-0.075,0.055));
#1382=CARTESIAN_POINT('',(-3.46944695195361E-18,-0.075,0.065));
#1383=CARTESIAN_POINT('',(-0.0175,-0.039,0.065));
#1384=CARTESIAN_POINT('',(0.0155,-0.039,0.065));
#1385=CARTESIAN_POINT('',(-0.0155,-0.039,0.065));
#1386=CARTESIAN_POINT('',(-0.0155,-0.075,0.065));
#1387=CARTESIAN_POINT('',(-0.0155,-0.065,0.065));
#1388=CARTESIAN_POINT('',(0.0175,-0.065,0.065));
#1389=CARTESIAN_POINT('',(0.0155,-0.065,0.065));
#1390=CARTESIAN_POINT('',(0.0155,-0.039,0.065));
#1391=CARTESIAN_POINT('',(-1.38777878078145E-17,-0.037,0.0182984190050551));
#1392=CARTESIAN_POINT('',(0.0155,-0.037,0.0182984190050551));
#1393=CARTESIAN_POINT('',(0.0155,-0.037,0.063));
#1394=CARTESIAN_POINT('',(0.0155,-0.037,0.062));
#1395=CARTESIAN_POINT('',(-0.0175,-0.037,0.062));
#1396=CARTESIAN_POINT('',(-0.0155,-0.037,0.062));
#1397=CARTESIAN_POINT('',(-0.0155,-0.037,0.065));
#1398=CARTESIAN_POINT('',(-0.0155,-0.037,0.063));
#1399=CARTESIAN_POINT('',(0.0175,-0.037,0.063));
#1400=CARTESIAN_POINT('',(0.,-0.0015,0.015));
#1401=CARTESIAN_POINT('',(-0.0155,-0.0015,0.015));
#1402=CARTESIAN_POINT('',(0.0155,-0.0015,0.015));
#1403=CARTESIAN_POINT('',(3.46944695195361E-18,-0.065,0.055));
#1404=CARTESIAN_POINT('',(-0.0155,-0.065,0.055));
#1405=CARTESIAN_POINT('',(0.0155,-0.065,0.055));
#1406=CARTESIAN_POINT('',(-3.46944695195361E-18,-0.039,0.063));
#1407=CARTESIAN_POINT('',(-0.0155,-0.039,0.063));
#1408=CARTESIAN_POINT('',(0.0155,-0.039,0.063));
#1409=CARTESIAN_POINT('',(0.0155,-0.039,0.));
#1410=CARTESIAN_POINT('',(0.0155,-0.039,0.063));
#1411=CARTESIAN_POINT('',(0.0155,-0.039,0.062));
#1412=CARTESIAN_POINT('',(-0.0155,-0.039,0.));
#1413=CARTESIAN_POINT('',(-0.0155,-0.039,0.063));
#1414=CARTESIAN_POINT('',(-0.0155,-0.039,0.062));
#1415=CARTESIAN_POINT('',(-1.38777878078145E-17,-0.039,0.062));
#1416=CARTESIAN_POINT('',(-0.0155,-0.039,0.062));
#1417=CARTESIAN_POINT('',(0.0155,-0.039,0.062));
#1418=CARTESIAN_POINT('',(-0.0175,-0.06375,-0.01));
#1419=CARTESIAN_POINT('',(-0.0175,-0.0675,-0.01));
#1420=CARTESIAN_POINT('',(-0.0175,-0.06375,-0.015));
#1421=CARTESIAN_POINT('',(-0.0175,0.000595792720559985,-0.0125));
#1422=CARTESIAN_POINT('',(-0.0175,0.00119158544111997,-0.015));
#1423=CARTESIAN_POINT('',(-0.0175,0.000595792720559987,-0.0175));
#1424=CARTESIAN_POINT('',(0.015,-0.055,0.065002));
#1425=CARTESIAN_POINT('',(0.0155,-0.055,0.065002));
#1426=CARTESIAN_POINT('',(0.0125,-0.055,0.065002));
#1427=CARTESIAN_POINT('',(0.0125,-0.0575,0.065002));
#1428=CARTESIAN_POINT('',(-0.0125,-0.0575,0.065002));
#1429=CARTESIAN_POINT('',(-0.0125,-0.055,0.065002));
#1430=CARTESIAN_POINT('',(-0.015,-0.055,0.065002));
#1431=CARTESIAN_POINT('',(-0.0155,-0.055,0.065002));
#1432=CARTESIAN_POINT('',(-0.0155,-0.039,0.063));
#1433=CARTESIAN_POINT('',(-0.0155,-0.039,0.063));
#1434=CARTESIAN_POINT('',(-0.0155,0.0035,0.063));
#1435=CARTESIAN_POINT('',(-0.0155,-0.065,0.063));
#1436=CARTESIAN_POINT('',(-0.0155,-0.065,0.055));
#1437=CARTESIAN_POINT('',(-0.0155,-0.073,0.055));
#1438=CARTESIAN_POINT('',(-0.0155,-0.073,0.));
#1439=CARTESIAN_POINT('',(-0.0155,-0.073,-0.018));
#1440=CARTESIAN_POINT('',(0.0155,-0.039,0.063));
#1441=CARTESIAN_POINT('',(0.0155,-0.039,0.063));
#1442=CARTESIAN_POINT('',(0.0155,-0.075,0.063));
#1443=CARTESIAN_POINT('',(0.0155,-0.065,0.063));
#1444=CARTESIAN_POINT('',(0.0155,-0.065,0.055));
#1445=CARTESIAN_POINT('',(0.0155,-0.073,0.055));
#1446=CARTESIAN_POINT('',(0.0155,-0.073,0.));
#1447=CARTESIAN_POINT('',(0.0155,-0.073,-0.018));
#1448=CARTESIAN_POINT('',(-0.0155,-0.0015,0.015));
#1449=CARTESIAN_POINT('',(-0.0155,-0.0015,0.018));
#1450=CARTESIAN_POINT('',(-0.0155,0.0035,0.018));
#1451=CARTESIAN_POINT('',(-0.0155,-0.057,0.018));
#1452=CARTESIAN_POINT('',(-0.0155,-0.057,0.));
#1453=CARTESIAN_POINT('',(-0.0155,-0.057,0.062));
#1454=CARTESIAN_POINT('',(-0.0155,0.0035,0.062));
#1455=CARTESIAN_POINT('',(-0.0155,-0.039,0.062));
#1456=CARTESIAN_POINT('',(-0.0155,-0.039,0.062));
#1457=CARTESIAN_POINT('',(0.0155,-0.0015,0.015));
#1458=CARTESIAN_POINT('',(0.0155,-0.0015,0.018));
#1459=CARTESIAN_POINT('',(0.0155,0.0035,0.018));
#1460=CARTESIAN_POINT('',(0.0155,-0.057,0.018));
#1461=CARTESIAN_POINT('',(0.0155,-0.057,0.065002));
#1462=CARTESIAN_POINT('',(0.0155,-0.057,0.062));
#1463=CARTESIAN_POINT('',(0.0155,-0.037,0.062));
#1464=CARTESIAN_POINT('',(0.0155,-0.039,0.062));
#1465=CARTESIAN_POINT('',(0.0155,-0.039,0.062));
#1466=CARTESIAN_POINT('',(0.0175,0.0015,0.622));
#1467=CARTESIAN_POINT('',(0.0175,0.0015,0.622));
#1468=CARTESIAN_POINT('',(3.46944695195361E-18,-0.073,-0.018));
#1469=MECHANICAL_DESIGN_GEOMETRIC_PRESENTATION_REPRESENTATION('',(#854),
#1470);
#1470=(
GEOMETRIC_REPRESENTATION_CONTEXT(3)
GLOBAL_UNCERTAINTY_ASSIGNED_CONTEXT((#1471))
GLOBAL_UNIT_ASSIGNED_CONTEXT((#1474,#1473,#1472))
REPRESENTATION_CONTEXT('Part 1','TOP_LEVEL_ASSEMBLY_PART')
);
#1471=UNCERTAINTY_MEASURE_WITH_UNIT(LENGTH_MEASURE(2.E-5),#1474,
'DISTANCE_ACCURACY_VALUE','Maximum Tolerance applied to model');
#1472=(
NAMED_UNIT(*)
SI_UNIT($,.STERADIAN.)
SOLID_ANGLE_UNIT()
);
#1473=(
NAMED_UNIT(*)
PLANE_ANGLE_UNIT()
SI_UNIT($,.RADIAN.)
);
#1474=(
LENGTH_UNIT()
NAMED_UNIT(*)
SI_UNIT($,.METRE.)
);
#1475=PRODUCT_DEFINITION_SHAPE('','',#1476);
#1476=PRODUCT_DEFINITION('','',#1478,#1477);
#1477=PRODUCT_DEFINITION_CONTEXT('',#1484,'design');
#1478=PRODUCT_DEFINITION_FORMATION_WITH_SPECIFIED_SOURCE('','',#1480,
 .NOT_KNOWN.);
#1479=PRODUCT_RELATED_PRODUCT_CATEGORY('','',(#1480));
#1480=PRODUCT('Part 1','Part 1','Part 1',(#1482));
#1481=PRODUCT_CATEGORY('','');
#1482=PRODUCT_CONTEXT('',#1484,'mechanical');
#1483=APPLICATION_PROTOCOL_DEFINITION('international standard',
'ap242_managed_model_based_3d_engineering',2020,#1484);
#1484=APPLICATION_CONTEXT('managed model based 3d engineering');
ENDSEC;
END-ISO-10303-21;
